<svg width="565" height="555" viewBox="0 0 565 555" fill="none" xmlns="http://www.w3.org/2000/svg">
<path d="M564.525 372.84H347.957V247.516H564.525V372.84ZM349.279 371.518H563.204V248.837H349.279V371.518Z" fill="#E6813F"/>
<path d="M519.848 314.34H376.963V318.529H519.848V314.34Z" fill="#E6813F"/>
<path d="M529.693 329.959H376.963V334.532H529.693V329.959Z" fill="#E6813F"/>
<path d="M529.693 345.764H376.963V350.336H529.693V345.764Z" fill="#E6813F"/>
<path d="M426.899 291.651H376.963V302.527H426.899V291.651Z" fill="#F0F0F0"/>
<path d="M563.865 248.177H348.658V268.13H563.865V248.177Z" fill="#E6813F"/>
<path d="M547.307 265.144C547.03 264.879 549.805 261.536 553.491 257.678C557.178 253.819 560.416 250.899 560.68 251.15C560.944 251.401 558.182 254.757 554.496 258.629C550.809 262.501 547.571 265.408 547.307 265.144Z" fill="white"/>
<path d="M560.706 265.144C560.442 265.408 557.218 262.501 553.518 258.629C549.818 254.757 547.056 251.414 547.334 251.15C547.611 250.885 550.822 253.793 554.522 257.678C558.222 261.563 560.957 264.879 560.706 265.144Z" fill="white"/>
<path d="M298.034 0H82.8268V124.016H298.034V0Z" fill="#FEDCC7"/>
<path d="M254.03 66.1769H111.145V70.3658H254.03V66.1769Z" fill="#E6813F"/>
<path d="M263.875 81.7961H111.145V86.3682H263.875V81.7961Z" fill="#E6813F"/>
<path d="M263.875 97.6003H111.145V102.172H263.875V97.6003Z" fill="#E6813F"/>
<path d="M161.082 43.4881H111.145V54.3634H161.082V43.4881Z" fill="#E6813F"/>
<path d="M298.034 0H82.8268V19.9535H298.034V0Z" fill="#E6813F"/>
<path d="M280.75 16.8746C280.472 16.6235 283.247 13.2671 286.934 9.40853C290.621 5.54997 293.858 2.62963 294.122 2.89392C294.387 3.1582 291.625 6.5014 287.938 10.36C284.251 14.2185 281.014 17.1124 280.75 16.8746Z" fill="white"/>
<path d="M294.122 16.8746C293.858 17.1389 290.634 14.2317 286.934 10.3599C283.234 6.48818 280.472 3.15819 280.75 2.89391C281.027 2.62962 284.238 5.53675 287.938 9.40852C291.638 13.2803 294.4 16.6235 294.122 16.8746Z" fill="white"/>
<path d="M216.528 230.377H0V105.04H216.528V230.377ZM1.32142 229.056H215.207V106.361H1.32142V229.056Z" fill="#E6813F"/>
<path d="M171.864 171.878H28.9788V176.066H171.864V171.878Z" fill="#E6813F"/>
<path d="M181.709 187.497H28.9788V192.069H181.709V187.497Z" fill="#F0F0F0"/>
<path d="M181.709 203.301H28.9788V207.873H181.709V203.301Z" fill="#F0F0F0"/>
<path d="M78.9154 149.189H28.9788V160.064H78.9154V149.189Z" fill="#E6813F"/>
<path d="M215.868 105.701H0.660645V125.654H215.868V105.701Z" fill="#E6813F"/>
<path d="M466.423 259.091H212.313V486.588H466.423V259.091Z" fill="#FEDCC7"/>
<path d="M225.091 187.431H26.032V394.247H225.091V187.431Z" fill="#FEDCC7"/>
<path d="M225.091 187.431H26.032V209.961H225.091V187.431Z" fill="#E6813F"/>
<path d="M42.4706 198.465C42.4344 199.282 42.159 200.07 41.6787 200.732C41.1984 201.394 40.5343 201.9 39.7688 202.188C39.0034 202.476 38.1702 202.533 37.3727 202.351C36.5753 202.17 35.8487 201.758 35.283 201.168C34.7174 200.577 34.3377 199.833 34.191 199.029C34.0443 198.224 34.1371 197.394 34.4579 196.642C34.7787 195.89 35.3133 195.248 35.9954 194.797C36.6775 194.346 37.4771 194.105 38.2949 194.104C39.4258 194.132 40.4998 194.606 41.2822 195.423C42.0646 196.24 42.4919 197.334 42.4706 198.465V198.465Z" fill="white"/>
<path d="M59.4244 198.465C59.3907 199.285 59.1164 200.078 58.6355 200.745C58.1546 201.411 57.4885 201.921 56.72 202.211C55.9514 202.502 55.1145 202.56 54.3132 202.378C53.5119 202.197 52.7818 201.783 52.2135 201.19C51.6453 200.597 51.2641 199.849 51.1174 199.041C50.9707 198.232 51.065 197.399 51.3885 196.643C51.712 195.888 52.2504 195.245 52.9368 194.793C53.6231 194.342 54.4271 194.102 55.2487 194.104C56.3796 194.132 57.4536 194.606 58.2361 195.423C59.0185 196.24 59.4457 197.334 59.4244 198.465V198.465Z" fill="white"/>
<path d="M76.3783 198.465C76.3446 199.285 76.0702 200.078 75.5894 200.745C75.1085 201.411 74.4424 201.921 73.6738 202.211C72.9053 202.502 72.0683 202.56 71.2671 202.378C70.4658 202.197 69.7356 201.783 69.1674 201.19C68.5992 200.597 68.218 199.849 68.0713 199.041C67.9246 198.232 68.0188 197.399 68.3423 196.643C68.6658 195.888 69.2042 195.245 69.8906 194.793C70.577 194.342 71.381 194.102 72.2026 194.104C73.3335 194.132 74.4075 194.606 75.1899 195.423C75.9723 196.24 76.3996 197.334 76.3783 198.465V198.465Z" fill="white"/>
<path d="M536.102 45.2323H281.992V298.496H536.102V45.2323Z" fill="#FEDCC7"/>
<path d="M536.102 45.2323H281.992V74.8983H536.102V45.2323Z" fill="#E6813F"/>
<path d="M303.637 59.768C303.59 60.8465 303.228 61.8875 302.595 62.7619C301.961 63.6362 301.086 64.3053 300.075 64.6862C299.065 65.067 297.966 65.1428 296.913 64.904C295.86 64.6653 294.901 64.1226 294.154 63.3434C293.407 62.5641 292.905 61.5826 292.711 60.5206C292.517 59.4587 292.639 58.3632 293.062 57.3701C293.485 56.377 294.191 55.5301 295.091 54.9345C295.991 54.3389 297.047 54.0208 298.126 54.0198C299.618 54.0545 301.036 54.6788 302.068 55.7561C303.101 56.8334 303.665 58.2759 303.637 59.768V59.768Z" fill="white"/>
<path d="M324.343 55.883C325.076 56.6785 325.558 57.6721 325.73 58.7398C325.902 59.8075 325.756 60.9022 325.31 61.8875C324.864 62.8727 324.138 63.705 323.223 64.2806C322.307 64.8563 321.243 65.1497 320.161 65.1245C319.08 65.0993 318.03 64.7565 317.143 64.1388C316.255 63.5211 315.569 62.6558 315.169 61.6508C314.77 60.6458 314.675 59.5455 314.896 58.487C315.118 57.4285 315.646 56.4585 316.415 55.698C317.492 54.6732 318.931 54.1172 320.417 54.1518C321.904 54.1865 323.315 54.809 324.343 55.883V55.883Z" fill="white"/>
<path d="M348.274 59.768C348.228 60.8465 347.865 61.8875 347.232 62.7619C346.599 63.6362 345.723 64.3053 344.713 64.6862C343.703 65.067 342.603 65.1428 341.551 64.904C340.498 64.6653 339.538 64.1226 338.791 63.3434C338.044 62.5641 337.543 61.5826 337.349 60.5206C337.155 59.4587 337.277 58.3632 337.7 57.3701C338.123 56.377 338.828 55.5301 339.729 54.9345C340.629 54.3389 341.685 54.0208 342.764 54.0198C344.256 54.0545 345.673 54.6788 346.706 55.7561C347.739 56.8334 348.303 58.2759 348.274 59.768V59.768Z" fill="white"/>
<path d="M481.21 553.782C481.21 553.967 389.45 554.126 276.296 554.126C163.143 554.126 71.3436 553.967 71.3436 553.782C71.3436 553.597 163.09 553.439 276.296 553.439C389.503 553.439 481.21 553.611 481.21 553.782Z" fill="#E6813F"/>
<path d="M391.802 392.014C371.386 377.755 366.761 351.287 367.567 327.488C367.699 323.524 367.263 319.322 369.153 315.847C371.042 312.371 375.456 309.98 379.011 311.645C381.957 313.032 383.239 316.468 384.891 319.309C387.095 323.093 390.325 326.176 394.207 328.202C396.731 329.523 399.863 330.316 402.36 328.942C405.796 327.052 406.192 322.335 406.166 318.371C406.166 310.997 406.122 303.632 406.034 296.276C405.796 292.326 406.198 288.364 407.223 284.542C408.452 280.789 411.187 277.314 414.927 276.257C418.667 275.2 423.331 277.38 424.177 281.239C424.322 282.873 424.362 284.515 424.296 286.154C424.401 287.806 425.168 289.616 426.714 290.119C428.26 290.621 429.872 289.471 431.062 288.308C435.131 284.344 437.906 279.177 440.483 274.076C443.06 268.976 445.584 263.73 449.284 259.382C452.984 255.035 458.098 251.586 463.82 251.256C469.541 250.925 475.501 254.44 476.928 259.99C478.355 265.54 475.118 271.209 471.642 275.715C466.398 282.404 460.216 288.301 453.288 293.224C451.935 293.962 450.856 295.116 450.209 296.514C449.35 299.157 451.847 301.8 454.451 302.632C457.397 303.61 460.595 303.306 463.701 303.676C466.806 304.046 470.11 305.394 471.286 308.301C472.898 312.345 469.515 316.573 466.198 319.348C459.538 324.898 451.976 329.265 443.84 332.259C440.933 333.316 437.88 334.254 435.528 336.289C433.176 338.324 431.775 341.879 433.189 344.667C434.603 347.455 438.237 348.341 441.289 347.772C444.342 347.204 447.051 345.566 449.958 344.469C455.389 342.421 462.392 342.791 465.815 347.482C466.875 349.098 467.546 350.937 467.776 352.856C468.005 354.775 467.786 356.722 467.136 358.542C465.814 362.164 463.778 365.485 461.15 368.307C452.496 378.648 441.25 386.505 428.564 391.075C415.971 395.436 404.303 396.625 391.789 392.04" fill="#FF725E"/>
<path d="M471.114 254.519C471.114 254.519 470.995 254.652 470.731 254.889L469.555 255.933C468.524 256.858 467.004 258.206 465.088 259.99C459.656 265.034 454.611 270.481 449.998 276.283C447.051 279.944 443.998 284.093 440.748 288.599C437.497 293.105 434.14 297.968 430.81 303.135C427.26 308.583 424.009 314.221 421.072 320.022C419.539 323.048 418.191 326.207 416.803 329.431L412.707 339.276C407.307 351.676 402.605 364.368 398.621 377.293C395.412 387.868 393.2 398.72 392.013 409.707C391.245 417.122 391.121 424.59 391.643 432.026C391.855 434.669 392.053 436.691 392.238 438.065C392.317 438.726 392.37 439.254 392.423 439.638V440.179C392.366 440.008 392.326 439.831 392.304 439.651C392.238 439.268 392.159 438.752 392.053 438.092C391.815 436.77 391.564 434.682 391.326 432.039C390.689 424.589 390.733 417.097 391.459 409.655C392.571 398.62 394.735 387.718 397.92 377.095C401.871 364.134 406.561 351.409 411.967 338.985L416.169 329.18C417.557 325.969 418.918 322.784 420.464 319.745C423.422 313.926 426.699 308.275 430.282 302.817C433.665 297.532 437.074 292.748 440.285 288.282C443.496 283.815 446.601 279.64 449.535 275.993C454.196 270.205 459.308 264.797 464.824 259.818C466.78 258.061 468.339 256.739 469.396 255.854L470.625 254.863C470.776 254.732 470.939 254.617 471.114 254.519V254.519Z" fill="#263238"/>
<path d="M420.635 319.718C420.449 319.174 420.321 318.612 420.252 318.04C420.041 316.944 419.803 315.397 419.525 313.389C418.957 309.425 418.376 303.994 417.755 297.981C417.134 291.969 416.433 286.524 415.852 282.6C415.548 280.644 415.284 279.072 415.099 277.975C414.954 277.413 414.879 276.836 414.874 276.257C415.102 276.786 415.266 277.341 415.363 277.909C415.654 278.992 415.984 280.552 416.354 282.52C417.107 286.485 417.847 291.876 418.468 297.902C419.089 303.927 419.618 309.213 420.028 313.323C420.226 315.173 420.398 316.745 420.53 318.001C420.632 318.567 420.668 319.144 420.635 319.718V319.718Z" fill="#263238"/>
<path d="M471.484 310.231C470.841 310.371 470.186 310.45 469.528 310.469C468.207 310.587 466.33 310.746 464.005 311.01C459.353 311.512 452.958 312.437 445.941 313.759C438.924 315.08 432.621 316.573 428.088 317.723C425.829 318.305 424.005 318.833 422.803 319.19C422.161 319.418 421.496 319.577 420.821 319.666C421.431 319.359 422.068 319.107 422.723 318.912C423.966 318.476 425.763 317.868 428.009 317.221C432.515 315.9 438.818 314.327 445.862 312.979C451.828 311.838 457.848 311 463.899 310.469C466.238 310.27 468.128 310.191 469.449 310.165C470.128 310.118 470.81 310.141 471.484 310.231Z" fill="#263238"/>
<path d="M398.568 376.17C398.427 375.978 398.311 375.77 398.224 375.549L397.352 373.712C396.599 372.113 395.581 369.748 394.366 366.854C391.908 361.039 388.776 352.899 385.446 343.861C382.116 334.822 379.05 326.682 376.725 320.802C375.588 317.948 374.65 315.609 373.95 313.865L373.21 311.975C373.107 311.757 373.036 311.526 372.998 311.288C373.139 311.479 373.255 311.688 373.342 311.909L374.214 313.746C374.954 315.345 375.985 317.71 377.2 320.604C379.658 326.418 382.79 334.558 386.12 343.597C389.45 352.635 392.516 360.775 394.841 366.655C395.978 369.51 396.916 371.849 397.603 373.593C397.907 374.346 398.158 374.914 398.356 375.483C398.459 375.701 398.53 375.932 398.568 376.17V376.17Z" fill="#263238"/>
<path d="M466.066 354.406C465.854 354.527 465.628 354.621 465.392 354.683L463.436 355.344L456.208 357.683C450.103 359.665 441.673 362.493 432.423 365.612C423.173 368.73 414.702 371.505 408.558 373.355C405.492 374.293 402.995 375.007 401.263 375.483L399.268 375.998C399.036 376.072 398.797 376.12 398.555 376.143C398.766 376.022 398.993 375.928 399.228 375.866L401.184 375.205L408.412 372.866C414.517 370.884 422.948 368.056 432.198 364.938C441.448 361.819 449.905 359.044 456.05 357.194C459.129 356.256 461.613 355.542 463.357 355.067L465.353 354.551C465.585 354.477 465.824 354.429 466.066 354.406V354.406Z" fill="#263238"/>
<path d="M438.528 33.8681L431.722 36.2995L428.802 27.4063C423.437 11.0075 406.338 2.29927 390.626 7.83604C374.914 13.3728 366.55 31.3574 371.915 47.7563L374.835 56.6494L368.003 59.0941C365.398 60.1045 363.283 62.08 362.096 64.6098C360.91 67.1397 360.745 70.0294 361.634 72.6783L380.57 130.543C380.963 131.855 381.616 133.074 382.489 134.128C383.362 135.182 384.439 136.05 385.654 136.679C386.87 137.309 388.199 137.688 389.564 137.794C390.929 137.9 392.301 137.731 393.599 137.296L464.124 112.07C466.763 111.061 468.908 109.068 470.109 106.51C471.309 103.952 471.47 101.028 470.559 98.3536L451.61 40.4884C451.206 39.1808 450.544 37.9678 449.661 36.9219C448.779 35.8759 447.695 35.0184 446.474 34.4006C445.253 33.7827 443.92 33.4171 442.555 33.3256C441.19 33.2341 439.82 33.4186 438.528 33.8681V33.8681ZM384.772 43.1181C383.325 38.8541 383.585 34.1958 385.497 30.119C387.408 26.0423 390.823 22.8634 395.026 21.2485C397.102 20.5384 399.299 20.2536 401.487 20.4112C403.675 20.5688 405.808 21.1655 407.761 22.1657C409.713 23.1658 411.444 24.549 412.85 26.2327C414.256 27.9163 415.308 29.866 415.944 31.9652L418.852 40.8584L387.679 52.0112L384.772 43.1181ZM424.415 94.4686L429.251 109.242C429.34 109.538 429.311 109.857 429.171 110.133C429.031 110.409 428.79 110.62 428.498 110.722L421.719 113.14C421.449 113.215 421.161 113.183 420.915 113.05C420.668 112.917 420.483 112.693 420.398 112.427L415.522 97.7193C412.833 97.5728 410.253 96.6084 408.128 94.9553C406.002 93.3022 404.433 91.0392 403.629 88.4693C402.479 85.0718 402.689 81.3615 404.214 78.1151C405.738 74.8687 408.46 72.338 411.808 71.0529C413.462 70.4881 415.212 70.2618 416.954 70.3877C418.697 70.5136 420.396 70.9889 421.951 71.7855C423.506 72.5821 424.885 73.6836 426.005 75.0243C427.125 76.365 427.964 77.9176 428.471 79.5893C429.322 82.1999 429.392 85.0017 428.674 87.6516C427.956 90.3015 426.48 92.6843 424.428 94.5082L424.415 94.4686Z" fill="#FF725E"/>
<path d="M431.418 36.1409C431.418 36.3259 418.799 41.0699 403.1 46.7123C387.402 52.3548 374.597 56.8873 374.531 56.7552C374.465 56.623 387.151 51.8395 402.862 46.1838C418.574 40.5281 431.352 35.9692 431.418 36.1409Z" fill="#263238"/>
<path d="M446.403 38.5724C446.462 38.687 446.51 38.8064 446.549 38.9291C446.654 39.1934 446.773 39.537 446.932 39.9599C447.275 40.9245 447.751 42.2591 448.346 43.9241L453.42 58.6976C455.534 64.9612 458.058 72.3876 460.86 80.6333C462.181 84.7693 463.74 89.0772 465.194 93.6096C465.972 95.9453 466.308 98.4055 466.185 100.864C466.073 102.143 465.709 103.387 465.115 104.525C464.48 105.658 463.632 106.659 462.617 107.471C460.576 108.962 458.31 110.117 455.904 110.894L449.099 113.338L436.215 117.95L414.398 125.72L399.665 130.9L395.7 132.222L394.643 132.565C394.53 132.615 394.41 132.647 394.286 132.658C394.286 132.658 394.392 132.658 394.617 132.499L395.647 132.089L399.612 130.596L414.266 125.205L436.043 117.276L448.901 112.625L455.706 110.167C458.043 109.422 460.243 108.302 462.221 106.85C463.165 106.097 463.954 105.168 464.546 104.115C465.106 103.063 465.443 101.907 465.537 100.719C465.659 98.3498 465.336 95.9789 464.586 93.7286C463.159 89.2357 461.653 84.8883 460.291 80.7522C457.543 72.4933 455.006 65.0405 452.997 58.7769C450.989 52.5134 449.297 47.4788 448.134 43.9373C447.579 42.2063 447.156 40.8584 446.813 39.8806L446.496 38.8234C446.456 38.7434 446.425 38.6592 446.403 38.5724V38.5724Z" fill="#263238"/>
<path d="M409.192 20.3499C409.192 20.3499 408.492 20.0064 407.197 19.4778C405.351 18.7685 403.399 18.3754 401.422 18.3149C398.492 18.2145 395.577 18.7651 392.886 19.9271C389.613 21.374 386.815 23.7144 384.812 26.6796C382.796 29.6363 381.714 33.1304 381.706 36.7092C381.734 39.6424 382.179 42.5567 383.028 45.3645C383.715 47.7695 384.429 49.6855 384.904 51.0202C385.185 51.6981 385.415 52.396 385.591 53.108C385.216 52.4742 384.902 51.8061 384.653 51.1127C384.111 49.7913 383.332 47.9148 382.565 45.4966C381.625 42.6594 381.112 39.6976 381.046 36.7092C381.011 32.9952 382.118 29.3601 384.217 26.2963C386.29 23.2229 389.203 20.8101 392.608 19.3456C395.383 18.1773 398.39 17.6619 401.396 17.8392C403.415 17.9421 405.399 18.4123 407.25 19.2267C407.744 19.455 408.221 19.72 408.677 20.0196C408.865 20.1022 409.039 20.2136 409.192 20.3499V20.3499Z" fill="#263238"/>
<path d="M409.8 72.0572C410.011 71.9294 410.232 71.8189 410.461 71.7269C411.122 71.4284 411.807 71.1853 412.509 71.0001C413.623 70.6714 414.771 70.4762 415.931 70.4187C417.509 70.3339 419.087 70.5722 420.569 71.119C423.952 72.3083 427.058 75.7572 428.59 80.369C429.326 82.8439 429.326 85.4791 428.59 87.9539C427.775 90.6401 426.314 93.0856 424.335 95.0764L424.415 94.7196C426.172 99.5428 428.088 104.776 430.07 110.233L430.189 110.564L429.859 110.682L426.833 111.687L420.226 113.893L419.896 113.999L419.79 113.669C417.979 108.198 415.997 103.097 414.504 98.0893L414.795 98.3139C412.211 98.0993 409.748 97.1297 407.712 95.5257C405.87 94.1067 404.359 92.3029 403.285 90.24C402.316 88.4107 401.834 86.363 401.885 84.2936C401.946 82.1786 402.474 80.1033 403.431 78.2163C404.388 76.3293 405.751 74.6773 407.421 73.3786C408.109 72.8205 408.88 72.3745 409.707 72.0572C408.961 72.5001 408.238 72.9808 407.54 73.4976C405.705 75.0501 404.299 77.0474 403.457 79.2986C402.734 80.9962 402.396 82.8327 402.467 84.6765C402.538 86.5202 403.016 88.3254 403.867 89.9625C404.922 91.947 406.397 93.6784 408.188 95.0368C410.13 96.5614 412.479 97.4805 414.94 97.6796H415.165L415.231 97.8778C416.684 102.794 418.68 107.934 420.517 113.431L420.08 113.22L426.688 111.013L429.7 109.995L429.489 110.445C427.52 104.987 425.617 99.741 423.873 94.9178V94.7196L424.032 94.5611C425.953 92.6528 427.385 90.3092 428.207 87.7293C428.908 85.3619 428.908 82.8421 428.207 80.4747C426.767 76.0347 423.794 72.6651 420.569 71.4758C419.142 70.9255 417.619 70.6693 416.09 70.7226C414.948 70.7487 413.814 70.9039 412.707 71.1851C410.738 71.674 409.813 72.1233 409.8 72.0572Z" fill="#263238"/>
<path d="M368.955 453.605L236.958 452.997C229.335 452.955 222.04 449.89 216.676 444.474C211.312 439.057 208.317 431.734 208.349 424.111L209.75 93.2132C209.765 89.4367 210.525 85.7002 211.985 82.2174C213.446 78.7346 215.578 75.5738 218.261 72.9157C220.944 70.2575 224.124 68.1541 227.62 66.7258C231.116 65.2974 234.859 64.5721 238.636 64.5912L370.62 65.199C378.242 65.2375 385.538 68.2998 390.905 73.7135C396.271 79.1271 399.27 86.4494 399.242 94.0721L397.841 424.957C397.825 428.734 397.066 432.472 395.606 435.956C394.146 439.441 392.013 442.603 389.331 445.264C386.649 447.924 383.469 450.03 379.973 451.461C376.476 452.892 372.732 453.621 368.955 453.605V453.605Z" fill="#455A64"/>
<path d="M370.421 76.5765H344.839C344.004 76.592 343.18 76.7718 342.415 77.1056C341.65 77.4394 340.958 77.9207 340.379 78.522C339.8 79.1232 339.345 79.8328 339.04 80.6099C338.735 81.3871 338.586 82.2168 338.602 83.0515V87.6897C338.617 88.5238 338.468 89.3528 338.163 90.1292C337.858 90.9057 337.403 91.6143 336.824 92.2145C336.244 92.8148 335.552 93.2948 334.787 93.6272C334.022 93.9596 333.199 94.1377 332.364 94.1515L282.494 93.9268C280.807 93.8819 279.207 93.1691 278.045 91.9452C276.883 90.7212 276.254 89.0862 276.296 87.399V82.7608C276.339 81.0759 275.712 79.4427 274.553 78.2192C273.394 76.9956 271.797 76.2814 270.112 76.233H261.113L238.715 76.1273C233.388 76.0955 228.265 78.1761 224.468 81.9134C220.671 85.6507 218.51 90.7402 218.458 96.0675L217.136 419.05C217.124 421.693 217.633 424.312 218.633 426.759C219.633 429.205 221.105 431.43 222.965 433.308C224.826 435.185 227.037 436.678 229.475 437.7C231.912 438.723 234.526 439.256 237.169 439.268L368.889 439.876C371.533 439.888 374.154 439.379 376.602 438.378C379.05 437.377 381.277 435.904 383.156 434.043C385.034 432.181 386.528 429.968 387.551 427.529C388.575 425.091 389.107 422.474 389.12 419.83L390.441 96.8472C390.473 91.5049 388.382 86.3686 384.628 82.5675C380.874 78.7664 375.764 76.6115 370.421 76.5765V76.5765Z" fill="white"/>
<path d="M352.701 396.784L254.757 396.361C253.74 396.361 252.92 395.251 252.934 393.903L253.039 368.281C253.039 366.959 253.872 365.823 254.889 365.823L352.833 366.272C353.397 366.37 353.902 366.681 354.241 367.142C354.581 367.602 354.73 368.176 354.657 368.743L354.564 394.339C354.564 395.7 353.719 396.797 352.701 396.784Z" fill="#FF725E"/>
<path d="M283.84 381.484C283.418 381.484 283.011 381.417 282.621 381.281C282.236 381.14 281.938 380.961 281.726 380.744L281.962 380.281C282.163 380.476 282.431 380.641 282.767 380.777C283.109 380.907 283.466 380.972 283.84 380.972C284.198 380.972 284.488 380.929 284.711 380.842C284.938 380.75 285.104 380.628 285.207 380.476C285.315 380.324 285.369 380.156 285.369 379.972C285.369 379.75 285.304 379.571 285.174 379.435C285.049 379.3 284.884 379.194 284.678 379.118C284.472 379.037 284.244 378.966 283.995 378.907C283.746 378.847 283.496 378.785 283.247 378.72C282.998 378.649 282.767 378.557 282.556 378.443C282.35 378.329 282.182 378.18 282.052 377.996C281.927 377.806 281.865 377.56 281.865 377.256C281.865 376.974 281.938 376.717 282.084 376.484C282.236 376.245 282.466 376.055 282.775 375.914C283.084 375.768 283.48 375.695 283.962 375.695C284.282 375.695 284.599 375.741 284.914 375.833C285.228 375.92 285.499 376.042 285.727 376.199L285.524 376.679C285.28 376.516 285.02 376.397 284.743 376.321C284.472 376.245 284.209 376.207 283.954 376.207C283.613 376.207 283.331 376.253 283.109 376.345C282.886 376.438 282.721 376.562 282.613 376.719C282.51 376.871 282.458 377.045 282.458 377.24C282.458 377.462 282.521 377.641 282.645 377.777C282.775 377.912 282.943 378.018 283.149 378.094C283.361 378.17 283.591 378.237 283.84 378.297C284.09 378.357 284.336 378.422 284.58 378.492C284.83 378.563 285.057 378.655 285.263 378.769C285.475 378.877 285.643 379.023 285.768 379.208C285.898 379.392 285.963 379.633 285.963 379.931C285.963 380.208 285.887 380.465 285.735 380.704C285.583 380.937 285.35 381.127 285.036 381.273C284.727 381.414 284.328 381.484 283.84 381.484ZM287.274 381.436V375.744H287.876V381.436H287.274ZM289.727 381.436V375.744H290.223L294.151 380.688H293.891V375.744H294.484V381.436H293.988L290.069 376.492H290.329V381.436H289.727ZM298.838 381.484C298.405 381.484 298.004 381.414 297.635 381.273C297.272 381.127 296.955 380.923 296.684 380.663C296.418 380.403 296.209 380.097 296.057 379.744C295.911 379.392 295.838 379.007 295.838 378.59C295.838 378.172 295.911 377.787 296.057 377.435C296.209 377.083 296.421 376.776 296.692 376.516C296.963 376.256 297.28 376.055 297.643 375.914C298.012 375.768 298.413 375.695 298.847 375.695C299.28 375.695 299.676 375.763 300.034 375.898C300.397 376.034 300.706 376.24 300.961 376.516L300.587 376.898C300.348 376.66 300.085 376.489 299.798 376.386C299.511 376.283 299.202 376.232 298.871 376.232C298.519 376.232 298.193 376.291 297.895 376.411C297.602 376.524 297.345 376.69 297.123 376.907C296.906 377.118 296.735 377.367 296.61 377.655C296.491 377.936 296.432 378.248 296.432 378.59C296.432 378.926 296.491 379.237 296.61 379.525C296.735 379.812 296.906 380.064 297.123 380.281C297.345 380.492 297.602 380.658 297.895 380.777C298.193 380.891 298.516 380.948 298.863 380.948C299.188 380.948 299.494 380.899 299.782 380.801C300.074 380.704 300.343 380.538 300.587 380.305L300.928 380.761C300.657 380.999 300.34 381.181 299.977 381.306C299.614 381.425 299.234 381.484 298.838 381.484ZM300.351 380.688V378.59H300.928V380.761L300.351 380.688ZM307.052 381.484C306.326 381.484 305.754 381.276 305.337 380.858C304.919 380.441 304.71 379.823 304.71 379.004V375.744H305.312V378.98C305.312 379.652 305.464 380.148 305.768 380.468C306.071 380.788 306.499 380.948 307.052 380.948C307.611 380.948 308.042 380.788 308.345 380.468C308.649 380.148 308.8 379.652 308.8 378.98V375.744H309.386V379.004C309.386 379.823 309.177 380.441 308.76 380.858C308.348 381.276 307.779 381.484 307.052 381.484ZM311.199 381.436V375.744H313.33C313.812 375.744 314.227 375.822 314.574 375.98C314.921 376.131 315.186 376.354 315.37 376.646C315.56 376.934 315.655 377.283 315.655 377.695C315.655 378.096 315.56 378.443 315.37 378.736C315.186 379.023 314.921 379.246 314.574 379.403C314.227 379.56 313.812 379.639 313.33 379.639H311.533L311.801 379.354V381.436H311.199ZM311.801 379.403L311.533 379.11H313.313C313.882 379.11 314.313 378.988 314.606 378.744C314.904 378.495 315.053 378.145 315.053 377.695C315.053 377.24 314.904 376.888 314.606 376.638C314.313 376.389 313.882 376.264 313.313 376.264H311.533L311.801 375.98V379.403Z" fill="#E8E8E3"/>
<path d="M274.293 171.521L240.307 171.367L240.278 177.604L274.265 177.758L274.293 171.521Z" fill="#FF725E"/>
<path opacity="0.1" d="M274.293 171.521L240.307 171.367L240.278 177.604L274.265 177.758L274.293 171.521Z" fill="black"/>
<path d="M373.923 209.816C374.19 209.789 374.452 209.726 374.703 209.631C375.069 209.488 375.387 209.244 375.62 208.929C375.854 208.613 375.994 208.238 376.024 207.847C376.024 205.746 376.024 202.68 376.024 198.742C376.024 196.773 376.024 194.566 376.024 192.135C376.024 191.54 376.024 190.919 376.024 190.298C376.11 189.696 375.979 189.082 375.654 188.567C375.472 188.32 375.236 188.119 374.963 187.979C374.69 187.839 374.388 187.765 374.082 187.761H372.02H352.926L242.402 187.351C242.119 187.347 241.839 187.41 241.586 187.537C241.333 187.663 241.114 187.849 240.948 188.078C240.629 188.595 240.507 189.21 240.605 189.809C240.605 191.131 240.605 192.452 240.605 193.774C240.605 196.416 240.605 199.059 240.605 201.702C240.605 203.024 240.605 204.345 240.605 205.666C240.55 206.282 240.55 206.901 240.605 207.516C240.674 207.78 240.803 208.025 240.982 208.231C241.161 208.437 241.384 208.599 241.635 208.706C241.896 208.809 242.175 208.859 242.455 208.851H249.181L278.53 209.01L328.215 209.313L361.713 209.578L370.818 209.683H373.183C373.725 209.683 373.989 209.683 373.989 209.683H373.183H370.818H361.713H328.215L278.53 209.525L249.181 209.406H242.455C242.085 209.421 241.715 209.358 241.371 209.221C241.023 209.072 240.714 208.846 240.467 208.56C240.219 208.274 240.04 207.935 239.944 207.569C239.868 207.222 239.841 206.866 239.865 206.512V205.534C239.865 204.213 239.865 202.891 239.865 201.57C239.865 198.927 239.865 196.284 239.865 193.641C239.865 192.32 239.865 190.999 239.865 189.677C239.84 189.325 239.84 188.972 239.865 188.62C239.914 188.231 240.065 187.862 240.301 187.55C240.529 187.231 240.831 186.972 241.18 186.794C241.53 186.617 241.917 186.527 242.309 186.532L352.833 187.14L371.928 187.272H373.989C374.352 187.272 374.71 187.36 375.032 187.528C375.354 187.696 375.631 187.939 375.839 188.237C376.212 188.811 376.362 189.502 376.262 190.179C376.262 190.8 376.262 191.421 376.262 192.016C376.262 194.421 376.262 196.628 376.262 198.623C376.262 202.587 376.17 205.627 376.143 207.741C376.111 208.147 375.963 208.536 375.717 208.862C375.472 209.187 375.138 209.436 374.756 209.578C374.506 209.733 374.217 209.815 373.923 209.816V209.816Z" fill="#E0E0E0"/>
<path d="M312.675 193.985H250.516V199.812H312.675V193.985Z" fill="#FF725E"/>
<path opacity="0.2" d="M312.675 193.985H250.516V199.812H312.675V193.985Z" fill="white"/>
<path d="M274.061 228.42L240.075 228.266L240.047 234.503L274.033 234.657L274.061 228.42Z" fill="#FF725E"/>
<path opacity="0.1" d="M274.061 228.42L240.075 228.266L240.047 234.503L274.033 234.657L274.061 228.42Z" fill="black"/>
<path d="M373.064 266.716C373.331 266.683 373.596 266.635 373.857 266.571C374.226 266.453 374.566 266.258 374.853 265.998C375.14 265.738 375.368 265.42 375.522 265.064C375.73 264.531 375.812 263.956 375.76 263.386C375.76 262.752 375.76 262.065 375.76 261.298C375.76 259.765 375.76 258.021 375.76 256.013V247.622C375.823 247.014 375.689 246.402 375.377 245.877C375.051 245.339 374.538 244.939 373.936 244.754C373.278 244.637 372.608 244.601 371.941 244.648H352.926L242.785 244.239C242.193 244.24 241.621 244.457 241.176 244.848C240.731 245.239 240.444 245.779 240.367 246.366C240.367 247.622 240.367 249.009 240.367 250.331C240.367 252.973 240.367 255.616 240.367 258.259C240.367 259.58 240.367 260.902 240.367 262.223C240.318 262.841 240.344 263.462 240.446 264.073C240.611 264.609 240.951 265.074 241.411 265.395C241.899 265.704 242.472 265.852 243.049 265.818H244.886H248.705L277.948 265.963L327.462 266.267L360.841 266.531L369.919 266.637H372.285H373.077H372.285H369.919H360.841H327.462L277.922 266.584L248.679 266.478H242.93C242.216 266.521 241.506 266.331 240.909 265.937C240.307 265.52 239.869 264.908 239.667 264.205C239.548 263.534 239.513 262.851 239.561 262.17C239.561 260.849 239.561 259.528 239.561 258.206C239.561 255.563 239.561 252.92 239.561 250.278C239.561 248.956 239.561 247.635 239.561 246.313C239.657 245.558 240.026 244.863 240.597 244.36C241.169 243.856 241.904 243.578 242.666 243.578L352.807 244.186L371.822 244.331C372.53 244.288 373.241 244.337 373.936 244.477C374.623 244.701 375.202 245.172 375.562 245.798C375.904 246.38 376.052 247.056 375.985 247.727C375.985 248.348 375.985 248.956 375.985 249.564C375.985 251.956 375.985 254.149 375.985 256.171C375.985 258.193 375.985 259.898 375.985 261.457C375.985 262.21 375.985 262.91 375.985 263.558C376.033 264.149 375.937 264.743 375.707 265.289C375.536 265.654 375.287 265.977 374.98 266.237C374.672 266.497 374.311 266.687 373.923 266.795C373.634 266.819 373.344 266.792 373.064 266.716V266.716Z" fill="#E0E0E0"/>
<path d="M273.805 287.79L239.819 287.635L239.79 293.873L273.777 294.027L273.805 287.79Z" fill="#FF725E"/>
<path opacity="0.1" d="M273.805 287.79L239.819 287.635L239.79 293.873L273.777 294.027L273.805 287.79Z" fill="black"/>
<path d="M372.8 326.061C373.067 326.03 373.332 325.981 373.593 325.916C373.96 325.799 374.299 325.606 374.586 325.348C374.873 325.091 375.102 324.775 375.258 324.423C375.465 323.889 375.546 323.315 375.496 322.745C375.496 322.097 375.496 321.423 375.496 320.643C375.496 319.124 375.496 317.366 375.496 315.358V306.967C375.559 306.359 375.424 305.748 375.113 305.222C374.779 304.694 374.268 304.3 373.672 304.112C373.015 303.99 372.344 303.95 371.677 303.994H352.662L242.521 303.584C241.928 303.585 241.357 303.802 240.912 304.193C240.467 304.584 240.18 305.124 240.103 305.711C240.103 307.033 240.103 308.354 240.103 309.676C240.103 312.318 240.103 314.961 240.103 317.604C240.103 318.926 240.103 320.247 240.103 321.568C240.054 322.182 240.08 322.799 240.182 323.405C240.34 323.944 240.681 324.412 241.147 324.727C241.632 325.043 242.207 325.192 242.785 325.15H248.533L277.776 325.308L327.29 325.612L360.669 325.876L369.748 325.982H372.113C372.641 325.982 372.906 325.982 372.906 325.982C372.906 325.982 372.641 325.982 372.113 325.982H369.748H360.669H327.29L277.776 325.837L248.533 325.718H242.785C242.07 325.766 241.359 325.575 240.763 325.176C240.162 324.759 239.723 324.148 239.521 323.445C239.403 322.773 239.367 322.09 239.416 321.41C239.416 320.088 239.416 318.767 239.416 317.446C239.416 314.803 239.416 312.16 239.416 309.517C239.416 308.196 239.416 306.874 239.416 305.487C239.509 304.732 239.875 304.038 240.444 303.534C241.014 303.03 241.747 302.752 242.508 302.751L352.648 303.359L371.664 303.505C372.372 303.461 373.082 303.51 373.778 303.65C374.464 303.874 375.044 304.345 375.403 304.971C375.745 305.553 375.893 306.229 375.826 306.901C375.826 307.522 375.826 308.143 375.826 308.737C375.826 311.129 375.826 313.323 375.826 315.345C375.826 317.366 375.826 319.071 375.826 320.63C375.826 321.383 375.826 322.084 375.826 322.731C375.877 323.322 375.782 323.917 375.549 324.462C375.377 324.827 375.129 325.15 374.821 325.41C374.513 325.67 374.153 325.861 373.765 325.969C373.455 326.075 373.124 326.107 372.8 326.061V326.061Z" fill="#E0E0E0"/>
<path d="M311.348 252.533L249.189 252.251L249.163 258.078L311.322 258.36L311.348 252.533Z" fill="#FF725E"/>
<path opacity="0.2" d="M311.348 252.533L249.189 252.251L249.163 258.078L311.322 258.36L311.348 252.533Z" fill="white"/>
<path d="M254.81 315.279C254.771 315.81 254.577 316.318 254.252 316.741C253.926 317.163 253.484 317.48 252.98 317.654C252.476 317.827 251.933 317.848 251.416 317.715C250.9 317.583 250.435 317.301 250.077 316.906C249.719 316.511 249.486 316.019 249.405 315.492C249.324 314.966 249.399 314.427 249.622 313.942C249.845 313.458 250.204 313.05 250.657 312.768C251.109 312.487 251.635 312.344 252.167 312.358C252.903 312.399 253.594 312.729 254.089 313.275C254.583 313.822 254.843 314.542 254.81 315.279V315.279Z" fill="#FF725E"/>
<path d="M263.228 315.318C263.254 315.691 263.203 316.065 263.078 316.417C262.953 316.769 262.757 317.091 262.503 317.364C262.248 317.637 261.94 317.855 261.597 318.004C261.255 318.153 260.885 318.23 260.512 318.23C260.139 318.23 259.769 318.153 259.427 318.004C259.084 317.855 258.776 317.637 258.521 317.364C258.267 317.091 258.071 316.769 257.946 316.417C257.821 316.065 257.771 315.691 257.797 315.318C257.771 314.946 257.821 314.572 257.946 314.22C258.071 313.868 258.267 313.545 258.521 313.272C258.776 312.999 259.084 312.781 259.427 312.632C259.769 312.483 260.139 312.406 260.512 312.406C260.885 312.406 261.255 312.483 261.597 312.632C261.94 312.781 262.248 312.999 262.503 313.272C262.757 313.545 262.953 313.868 263.078 314.22C263.203 314.572 263.254 314.946 263.228 315.318V315.318Z" fill="#FF725E"/>
<path d="M271.658 315.358C271.619 315.889 271.425 316.398 271.1 316.82C270.775 317.242 270.332 317.56 269.828 317.733C269.324 317.906 268.781 317.928 268.265 317.795C267.748 317.662 267.283 317.38 266.925 316.985C266.567 316.59 266.334 316.098 266.253 315.572C266.172 315.045 266.247 314.506 266.47 314.022C266.693 313.537 267.052 313.129 267.505 312.848C267.957 312.566 268.483 312.423 269.015 312.437C269.75 312.482 270.439 312.812 270.933 313.358C271.427 313.904 271.687 314.622 271.658 315.358Z" fill="#FF725E"/>
<path d="M280.076 315.397C280.037 315.929 279.843 316.437 279.517 316.86C279.192 317.282 278.75 317.599 278.246 317.772C277.742 317.946 277.198 317.967 276.682 317.834C276.166 317.701 275.7 317.42 275.343 317.025C274.985 316.63 274.751 316.138 274.67 315.611C274.589 315.085 274.665 314.546 274.888 314.061C275.11 313.577 275.47 313.169 275.922 312.887C276.375 312.606 276.9 312.463 277.433 312.477C278.168 312.521 278.856 312.852 279.35 313.398C279.844 313.944 280.105 314.662 280.076 315.397Z" fill="#FF725E"/>
<path d="M288.493 315.424C288.457 315.956 288.265 316.466 287.941 316.89C287.617 317.314 287.176 317.634 286.672 317.809C286.168 317.984 285.623 318.007 285.106 317.876C284.589 317.744 284.122 317.464 283.763 317.069C283.404 316.674 283.169 316.182 283.087 315.655C283.006 315.128 283.081 314.588 283.303 314.103C283.525 313.618 283.885 313.209 284.338 312.927C284.791 312.645 285.317 312.502 285.85 312.517C286.583 312.561 287.269 312.89 287.763 313.433C288.257 313.976 288.519 314.69 288.493 315.424Z" fill="#FF725E"/>
<path d="M296.924 315.463C296.888 315.993 296.698 316.5 296.377 316.923C296.056 317.346 295.619 317.666 295.118 317.844C294.618 318.021 294.077 318.049 293.561 317.923C293.046 317.797 292.578 317.523 292.216 317.134C291.855 316.746 291.614 316.26 291.525 315.737C291.435 315.214 291.501 314.676 291.713 314.189C291.926 313.703 292.276 313.289 292.72 312.999C293.164 312.709 293.684 312.555 294.215 312.556C294.959 312.584 295.662 312.905 296.17 313.45C296.678 313.995 296.949 314.719 296.924 315.463V315.463Z" fill="#FF725E"/>
<path d="M305.341 315.503C305.367 315.876 305.316 316.25 305.192 316.602C305.067 316.954 304.871 317.276 304.617 317.549C304.362 317.822 304.054 318.04 303.711 318.189C303.369 318.338 302.999 318.415 302.626 318.415C302.252 318.415 301.883 318.338 301.54 318.189C301.198 318.04 300.89 317.822 300.635 317.549C300.38 317.276 300.185 316.954 300.06 316.602C299.935 316.25 299.884 315.876 299.91 315.503C299.884 315.131 299.935 314.757 300.06 314.405C300.185 314.053 300.38 313.73 300.635 313.457C300.89 313.184 301.198 312.966 301.54 312.817C301.883 312.668 302.252 312.591 302.626 312.591C302.999 312.591 303.369 312.668 303.711 312.817C304.054 312.966 304.362 313.184 304.617 313.457C304.871 313.73 305.067 314.053 305.192 314.405C305.316 314.757 305.367 315.131 305.341 315.503Z" fill="#FF725E"/>
<path d="M313.759 315.543C313.723 316.072 313.533 316.58 313.212 317.003C312.891 317.426 312.454 317.746 311.953 317.923C311.453 318.101 310.912 318.128 310.396 318.002C309.881 317.876 309.413 317.602 309.051 317.214C308.69 316.825 308.449 316.34 308.36 315.816C308.27 315.293 308.336 314.755 308.548 314.269C308.761 313.782 309.11 313.368 309.555 313.078C309.999 312.788 310.519 312.634 311.05 312.636C311.794 312.663 312.497 312.985 313.005 313.53C313.513 314.074 313.784 314.798 313.759 315.543V315.543Z" fill="#FF725E"/>
<path d="M322.176 315.582C322.14 316.115 321.948 316.625 321.624 317.049C321.3 317.473 320.859 317.792 320.355 317.968C319.851 318.143 319.306 318.166 318.789 318.035C318.272 317.903 317.805 317.622 317.446 317.228C317.087 316.833 316.852 316.341 316.771 315.814C316.689 315.287 316.764 314.747 316.986 314.262C317.208 313.777 317.568 313.368 318.021 313.086C318.474 312.804 319 312.661 319.533 312.675C320.266 312.72 320.952 313.048 321.446 313.591C321.94 314.135 322.202 314.849 322.176 315.582V315.582Z" fill="#FF725E"/>
<g opacity="0.2">
<path d="M254.81 315.279C254.771 315.81 254.577 316.318 254.252 316.741C253.926 317.163 253.484 317.48 252.98 317.654C252.476 317.827 251.933 317.848 251.416 317.715C250.9 317.583 250.435 317.301 250.077 316.906C249.719 316.511 249.486 316.019 249.405 315.492C249.324 314.966 249.399 314.427 249.622 313.942C249.845 313.458 250.204 313.05 250.657 312.768C251.109 312.487 251.635 312.344 252.167 312.358C252.903 312.399 253.594 312.729 254.089 313.275C254.583 313.822 254.843 314.542 254.81 315.279V315.279Z" fill="white"/>
<path d="M263.228 315.318C263.254 315.691 263.203 316.065 263.078 316.417C262.953 316.769 262.758 317.091 262.503 317.364C262.248 317.637 261.94 317.855 261.597 318.004C261.255 318.153 260.886 318.23 260.512 318.23C260.139 318.23 259.769 318.153 259.427 318.004C259.084 317.855 258.776 317.637 258.521 317.364C258.267 317.091 258.071 316.769 257.946 316.417C257.822 316.065 257.771 315.691 257.797 315.318C257.771 314.946 257.822 314.572 257.946 314.22C258.071 313.868 258.267 313.545 258.521 313.272C258.776 312.999 259.084 312.781 259.427 312.632C259.769 312.483 260.139 312.406 260.512 312.406C260.886 312.406 261.255 312.483 261.597 312.632C261.94 312.781 262.248 312.999 262.503 313.272C262.758 313.545 262.953 313.868 263.078 314.22C263.203 314.572 263.254 314.946 263.228 315.318V315.318Z" fill="white"/>
<path d="M271.658 315.358C271.619 315.889 271.425 316.398 271.1 316.82C270.775 317.242 270.333 317.56 269.829 317.733C269.325 317.906 268.781 317.928 268.265 317.795C267.748 317.662 267.283 317.38 266.925 316.985C266.567 316.59 266.334 316.098 266.253 315.572C266.172 315.045 266.247 314.506 266.47 314.022C266.693 313.537 267.053 313.129 267.505 312.848C267.957 312.566 268.483 312.423 269.015 312.437C269.75 312.482 270.439 312.812 270.933 313.358C271.427 313.904 271.687 314.622 271.658 315.358Z" fill="white"/>
<path d="M280.076 315.397C280.037 315.929 279.843 316.437 279.517 316.86C279.192 317.282 278.75 317.599 278.246 317.772C277.742 317.946 277.198 317.967 276.682 317.834C276.166 317.701 275.7 317.42 275.343 317.025C274.985 316.63 274.751 316.138 274.67 315.611C274.589 315.085 274.665 314.546 274.888 314.061C275.11 313.577 275.47 313.169 275.922 312.887C276.375 312.606 276.9 312.463 277.433 312.477C278.168 312.521 278.856 312.852 279.35 313.398C279.844 313.944 280.105 314.662 280.076 315.397Z" fill="white"/>
<path d="M288.493 315.424C288.457 315.956 288.265 316.466 287.941 316.89C287.617 317.314 287.176 317.634 286.672 317.809C286.168 317.984 285.623 318.008 285.106 317.876C284.589 317.744 284.122 317.464 283.763 317.069C283.404 316.674 283.169 316.183 283.088 315.655C283.006 315.128 283.081 314.588 283.303 314.103C283.525 313.618 283.885 313.209 284.338 312.927C284.791 312.645 285.317 312.502 285.85 312.517C286.583 312.561 287.269 312.89 287.763 313.433C288.257 313.976 288.519 314.69 288.493 315.424Z" fill="white"/>
<path d="M296.924 315.464C296.888 315.993 296.698 316.501 296.377 316.924C296.056 317.346 295.619 317.666 295.119 317.844C294.618 318.021 294.077 318.049 293.562 317.923C293.046 317.797 292.578 317.523 292.217 317.134C291.855 316.746 291.614 316.26 291.525 315.737C291.435 315.214 291.501 314.676 291.713 314.19C291.926 313.703 292.276 313.289 292.72 312.999C293.165 312.709 293.684 312.555 294.215 312.556C294.959 312.584 295.662 312.905 296.17 313.45C296.678 313.995 296.949 314.719 296.924 315.464V315.464Z" fill="white"/>
<path d="M305.341 315.503C305.367 315.876 305.317 316.25 305.192 316.602C305.067 316.954 304.871 317.276 304.617 317.549C304.362 317.822 304.054 318.04 303.711 318.189C303.369 318.338 302.999 318.415 302.626 318.415C302.252 318.415 301.883 318.338 301.541 318.189C301.198 318.04 300.89 317.822 300.635 317.549C300.381 317.276 300.185 316.954 300.06 316.602C299.935 316.25 299.884 315.876 299.91 315.503C299.884 315.131 299.935 314.757 300.06 314.405C300.185 314.053 300.381 313.73 300.635 313.457C300.89 313.184 301.198 312.966 301.541 312.817C301.883 312.668 302.252 312.592 302.626 312.592C302.999 312.592 303.369 312.668 303.711 312.817C304.054 312.966 304.362 313.184 304.617 313.457C304.871 313.73 305.067 314.053 305.192 314.405C305.317 314.757 305.367 315.131 305.341 315.503Z" fill="white"/>
<path d="M313.759 315.543C313.723 316.072 313.533 316.58 313.212 317.003C312.891 317.426 312.454 317.746 311.953 317.923C311.453 318.101 310.912 318.128 310.396 318.002C309.881 317.876 309.413 317.602 309.051 317.214C308.69 316.825 308.449 316.34 308.36 315.816C308.27 315.293 308.336 314.755 308.548 314.269C308.761 313.782 309.111 313.368 309.555 313.078C309.999 312.788 310.519 312.634 311.05 312.636C311.794 312.663 312.497 312.985 313.005 313.53C313.513 314.074 313.784 314.798 313.759 315.543V315.543Z" fill="white"/>
<path d="M322.176 315.582C322.14 316.115 321.948 316.625 321.624 317.049C321.3 317.473 320.859 317.792 320.355 317.968C319.851 318.143 319.306 318.166 318.789 318.035C318.272 317.903 317.805 317.622 317.446 317.228C317.087 316.833 316.852 316.341 316.771 315.814C316.689 315.287 316.764 314.747 316.986 314.262C317.208 313.777 317.568 313.368 318.021 313.086C318.474 312.804 319 312.661 319.533 312.675C320.266 312.72 320.952 313.048 321.446 313.591C321.94 314.135 322.202 314.849 322.176 315.582V315.582Z" fill="white"/>
</g>
<path d="M310.217 124.822C311.135 124.417 311.914 123.752 312.457 122.909C313 122.065 313.282 121.081 313.27 120.078C313.304 119.426 313.205 118.774 312.979 118.161C312.753 117.549 312.405 116.988 311.956 116.515C311.506 116.041 310.965 115.664 310.365 115.406C309.765 115.149 309.119 115.016 308.466 115.016C307.814 115.016 307.168 115.149 306.568 115.406C305.968 115.664 305.427 116.041 304.977 116.515C304.528 116.988 304.18 117.549 303.954 118.161C303.728 118.774 303.629 119.426 303.663 120.078C303.643 121.091 303.923 122.087 304.469 122.941C305.015 123.794 305.801 124.467 306.729 124.875C299.329 125.985 299.659 134.019 299.659 134.019L317.155 134.098C317.155 134.098 317.564 125.918 310.217 124.822Z" fill="#FF725E"/>
<path opacity="0.1" d="M310.217 124.822C311.135 124.417 311.914 123.752 312.457 122.909C313 122.065 313.282 121.081 313.27 120.078C313.304 119.426 313.205 118.774 312.979 118.161C312.753 117.549 312.405 116.988 311.956 116.515C311.506 116.041 310.965 115.664 310.365 115.406C309.765 115.149 309.119 115.016 308.466 115.016C307.814 115.016 307.168 115.149 306.568 115.406C305.968 115.664 305.427 116.041 304.977 116.515C304.528 116.988 304.18 117.549 303.954 118.161C303.728 118.774 303.629 119.426 303.663 120.078C303.643 121.091 303.923 122.087 304.469 122.941C305.015 123.794 305.801 124.467 306.729 124.875C299.329 125.985 299.659 134.019 299.659 134.019L317.155 134.098C317.155 134.098 317.564 125.918 310.217 124.822Z" fill="black"/>
<path d="M338.647 139.28L276.29 138.997L276.256 146.45L338.613 146.733L338.647 139.28Z" fill="#FF725E"/>
<path opacity="0.2" d="M338.647 139.28L276.29 138.997L276.256 146.45L338.613 146.733L338.647 139.28Z" fill="white"/>
<path d="M109.401 177.903H108.78L106.982 178.035C106.01 178.094 105.043 178.222 104.089 178.419C103.47 178.505 102.857 178.624 102.252 178.775L100.204 179.344C96.7174 180.413 93.4282 182.042 90.4647 184.167C86.5491 187.009 83.2796 190.648 80.8711 194.844C79.4555 197.263 78.329 199.84 77.5147 202.521C76.6591 205.436 76.1664 208.445 76.0479 211.481C75.9692 213.075 75.9957 214.673 76.1272 216.264C76.1272 217.07 76.3519 217.876 76.4576 218.696C76.5465 219.521 76.7011 220.339 76.9201 221.14C78.1083 226.443 80.5193 231.394 83.9607 235.6C87.4022 239.805 91.7788 243.148 96.7414 245.362C100.333 246.912 104.183 247.777 108.092 247.912C112.13 248.134 116.172 247.555 119.985 246.208L121.148 245.772H121.307L121.439 245.851L138.102 254.308L137.613 254.731C135.829 249.207 134.111 243.855 132.446 238.715V238.517L132.592 238.372C136.634 234.3 139.635 229.314 141.339 223.836C142.884 218.828 143.334 213.546 142.661 208.349C142.062 203.73 140.577 199.27 138.287 195.214C136.313 191.73 133.767 188.603 130.755 185.964C128.27 183.875 125.519 182.125 122.575 180.758C120.347 179.797 118.027 179.066 115.651 178.577L113.008 178.141L111.092 177.996L109.929 177.916H109.533C109.665 177.902 109.797 177.902 109.929 177.916H111.105L113.021 177.996L115.664 178.379C118.07 178.832 120.422 179.536 122.681 180.48C125.676 181.831 128.476 183.578 131.006 185.673C134.073 188.3 136.674 191.428 138.697 194.923C141.051 199.023 142.582 203.543 143.203 208.23C143.932 213.508 143.513 218.881 141.974 223.981C140.258 229.573 137.211 234.666 133.094 238.821L133.173 238.477C134.838 243.618 136.569 248.969 138.366 254.48L138.617 255.286L137.864 254.903L121.201 246.459H121.492L120.302 246.895C116.416 248.262 112.299 248.855 108.185 248.639C104.191 248.487 100.261 247.591 96.5961 245.996C89.6053 243.002 83.7891 237.799 80.0386 231.183C78.3127 228.128 77.0523 224.832 76.299 221.405C76.0927 220.583 75.9382 219.748 75.8365 218.907C75.7308 218.075 75.559 217.255 75.5194 216.436C75.1617 211.734 75.6587 207.006 76.9861 202.482C77.8207 199.763 78.9786 197.154 80.4351 194.712C82.901 190.477 86.2386 186.815 90.2268 183.969C93.2392 181.838 96.5836 180.222 100.124 179.185L102.199 178.656C102.81 178.515 103.427 178.405 104.049 178.326C105.013 178.148 105.989 178.042 106.969 178.009L108.78 177.943C108.985 177.915 109.193 177.902 109.401 177.903Z" fill="#FF725E"/>
<path d="M116.933 208.719H114.488L109.202 201.292V196.416C109.202 196.416 105.423 196.179 105.872 202.561C106.322 208.944 105.872 207.318 105.872 207.318C105.872 207.318 97.8515 207.318 97.1907 208.045C96.53 208.772 96.4904 216.515 96.3979 220.836C96.3472 221.878 96.6461 222.907 97.2471 223.759C97.848 224.611 98.7165 225.238 99.7147 225.541C99.9944 225.618 100.283 225.658 100.574 225.66C102.582 225.66 112.797 224.034 112.797 224.034H117.012L116.933 208.719Z" fill="#FF725E"/>
<path d="M123.923 207.411L122.417 224.113H118.241V207.754L123.923 207.411Z" fill="#FF725E"/>
<path d="M173.727 547.453V536.154L153.47 536.009L153.298 553.095L154.554 553.187C160.143 553.544 182.991 554.073 186.744 552.91C190.919 551.615 173.727 547.453 173.727 547.453Z" fill="#FF725E"/>
<path d="M187.219 551.853C187.219 552.038 179.634 552.196 170.292 552.196C160.949 552.196 153.364 552.038 153.364 551.853C153.364 551.668 160.949 551.509 170.292 551.509C179.634 551.509 187.219 551.668 187.219 551.853Z" fill="#263238"/>
<path d="M174.084 549.765C173.913 549.673 174.084 549.078 174.494 548.444C174.904 547.809 175.459 547.545 175.591 547.677C175.723 547.809 175.445 548.311 175.049 548.853C174.653 549.395 174.256 549.858 174.084 549.765Z" fill="#263238"/>
<path d="M175.379 550.505C175.194 550.505 175.287 549.765 175.683 549.065C176.08 548.364 176.608 547.941 176.753 548.047C176.899 548.153 176.661 548.748 176.291 549.369C175.921 549.99 175.551 550.571 175.379 550.505Z" fill="#263238"/>
<path d="M159.469 551.8C159.39 551.8 159.086 551.562 158.65 551.06C158.118 550.415 157.525 549.822 156.879 549.289C156.245 548.782 155.488 548.45 154.686 548.325C154.065 548.245 153.668 548.325 153.629 548.245C153.589 548.166 153.972 547.889 154.699 547.836C155.658 547.815 156.594 548.134 157.342 548.734C158.043 549.306 158.634 550 159.086 550.782C159.39 551.364 159.549 551.747 159.469 551.8Z" fill="#263238"/>
<path d="M174.15 547.638C174.243 547.796 173.899 548.193 173.318 548.404C172.736 548.615 172.221 548.536 172.195 548.404C172.168 548.272 172.578 547.994 173.08 547.809C173.582 547.624 174.045 547.479 174.15 547.638Z" fill="#263238"/>
<path d="M173.833 546.541C173.833 546.739 173.305 546.898 172.618 546.911C171.93 546.924 171.389 546.765 171.402 546.58C171.415 546.395 171.957 546.224 172.618 546.21C173.278 546.197 173.807 546.356 173.833 546.541Z" fill="#263238"/>
<path d="M223.611 547.453V536.154L203.354 536.009L203.182 552.923L204.437 553.016C210.027 553.372 232.888 554.073 236.627 552.91C240.803 551.615 223.611 547.453 223.611 547.453Z" fill="#FF725E"/>
<path d="M237.103 551.879C237.103 552.064 229.531 552.223 220.176 552.223C210.82 552.223 203.261 552.064 203.261 551.879C203.261 551.694 210.833 551.536 220.176 551.536C229.518 551.536 237.103 551.694 237.103 551.879Z" fill="#263238"/>
<path d="M223.968 549.765C223.81 549.673 223.968 549.078 224.378 548.444C224.787 547.809 225.342 547.545 225.474 547.677C225.607 547.809 225.329 548.311 224.933 548.853C224.536 549.395 224.14 549.858 223.968 549.765Z" fill="#263238"/>
<path d="M225.263 550.505C225.091 550.505 225.17 549.765 225.58 549.065C225.99 548.364 226.505 547.941 226.65 548.047C226.796 548.153 226.545 548.748 226.175 549.369C225.805 549.99 225.448 550.571 225.263 550.505Z" fill="#263238"/>
<path d="M209.353 551.8C209.274 551.8 208.983 551.562 208.534 551.06C208.001 550.415 207.409 549.822 206.763 549.289C206.128 548.782 205.372 548.45 204.57 548.325C203.962 548.245 203.552 548.325 203.512 548.245C203.473 548.166 203.856 547.889 204.583 547.836C205.542 547.815 206.478 548.134 207.226 548.734C207.93 549.302 208.522 549.997 208.97 550.782C209.274 551.364 209.432 551.747 209.353 551.8Z" fill="#263238"/>
<path d="M224.034 547.638C224.127 547.796 223.783 548.193 223.202 548.404C222.62 548.615 222.105 548.536 222.078 548.404C222.052 548.272 222.462 547.994 222.964 547.809C223.466 547.624 223.928 547.479 224.034 547.638Z" fill="#263238"/>
<path d="M223.743 546.541C223.743 546.739 223.215 546.898 222.528 546.911C221.841 546.924 221.312 546.765 221.325 546.58C221.338 546.395 221.867 546.224 222.528 546.21C223.188 546.197 223.743 546.356 223.743 546.541Z" fill="#263238"/>
<path d="M298.245 211.943C297.717 211.401 296.408 211.666 296.408 211.666C296.54 210.905 296.54 210.127 296.408 209.366C296.171 208.626 294.506 208.772 294.506 208.772C294.429 208.149 294.429 207.518 294.506 206.895C294.519 206.757 294.489 206.618 294.421 206.498C294.352 206.377 294.248 206.281 294.122 206.221C293.335 205.9 292.489 205.747 291.638 205.772C290.621 205.045 294.744 199.271 296.276 197.421C297.809 195.571 297.532 194.13 296.171 194.13C295.232 194.13 290.422 199.68 288.942 201.544C287.462 203.407 283.538 208.587 283.406 204.451C283.274 200.315 281.609 197.196 280.565 196.668C279.521 196.139 278.411 197.381 278.979 198.531C279.478 199.837 279.79 201.207 279.904 202.601C280.047 203.711 279.998 204.837 279.759 205.931C279.32 207.965 278.724 209.962 277.975 211.904H277.869C277.869 211.904 249.035 239.561 246.948 241.53C245.084 243.301 207.609 239.429 200.09 238.636C197.535 238.262 194.955 238.085 192.373 238.107C189.109 238.253 188.527 238.715 185.277 238.755C177.067 238.846 168.877 239.566 160.778 240.909C157.11 241.532 153.684 243.151 150.874 245.589C148.064 248.026 145.977 251.188 144.841 254.731C137.269 278.384 120.117 334.373 117.091 365.823C114.805 369.97 112.74 374.235 110.907 378.601C108.78 384.389 109.295 384.587 110.008 384.719C111.938 385.076 114.131 374.69 114.951 377.2C115.77 379.711 110.788 389.582 112.81 389.873C115.453 390.243 117.554 379.301 117.805 378.429C118.056 377.557 119.364 377.835 119.126 378.654C118.743 379.817 115.03 392.146 117.62 392.542C119.047 392.754 119.206 390.15 119.206 390.15C119.206 390.15 121.848 378.35 123.051 378.588C124.253 378.826 122.972 385.79 122.364 388.115C121.756 390.441 122.602 391.617 123.844 391.049C124.689 390.653 126.711 383.583 127.266 381.284C127.821 378.984 129.209 372.615 131.072 376.302C132.935 379.989 135.763 382.129 136.926 382.182C137.188 382.152 137.435 382.044 137.635 381.872C137.835 381.7 137.979 381.473 138.049 381.218C138.119 380.964 138.111 380.694 138.026 380.445C137.941 380.195 137.783 379.976 137.573 379.817C136.573 378.84 135.715 377.728 135.023 376.513C134.407 375.567 133.959 374.521 133.702 373.421C133.169 371.229 132.859 368.989 132.777 366.735L132.565 365.413C135.525 350.759 144.048 307.746 156.351 280.274L161.399 290.66L163.592 298.351L150.14 331.558L207.516 330.805L198.954 297.849L209.353 263.492C220.598 263.743 249.472 264.166 254.282 261.985C260.334 259.343 291.638 219.806 291.638 219.806C293.679 218.22 295.633 216.526 297.492 214.731C297.492 214.731 299.395 213.132 298.245 211.943Z" fill="#FFBE9D"/>
<path d="M147.616 307.02C149.281 301.337 157.831 273.244 157.831 273.244C157.831 273.244 162.033 296.144 160.923 298.906C159.902 301.27 158.696 303.55 157.315 305.725C147.616 320.485 148.885 327.872 148.885 327.872L207.49 326.088C207.622 317.895 202.772 298.84 201.768 295.801C200.764 292.761 204.107 282.811 204.107 282.811C204.107 282.811 210.714 276.085 210.476 272.623C210.351 269.513 209.966 266.419 209.327 263.373L245.005 264.694L243.882 240.512L192.637 235.385C190.853 240.42 174.719 237.949 174.719 237.949C157.302 238.53 156.219 241.728 148.977 247.357C141.736 252.987 129.75 301.298 129.75 301.298L147.616 307.02Z" fill="#FF725E"/>
<path d="M182.264 301.298C181.248 301.479 180.214 301.533 179.185 301.456C177.269 301.456 174.639 301.324 171.745 301.034C168.851 300.743 166.235 300.333 164.372 299.963C163.344 299.831 162.337 299.573 161.372 299.197C162.405 299.197 163.436 299.294 164.451 299.487C166.328 299.725 168.931 300.056 171.811 300.346C174.692 300.637 177.309 300.835 179.198 300.967C180.228 300.98 181.255 301.091 182.264 301.298V301.298Z" fill="#263238"/>
<path d="M186.281 296.316C185.265 296.814 184.191 297.182 183.083 297.413C177.811 298.798 172.372 299.443 166.922 299.329C165.794 299.366 164.667 299.259 163.566 299.012C164.679 298.871 165.801 298.814 166.922 298.84C168.997 298.774 171.851 298.629 174.996 298.259C178.141 297.889 180.942 297.36 182.925 296.937C184.026 296.643 185.148 296.435 186.281 296.316V296.316Z" fill="#263238"/>
<path d="M205.997 274.09C205.97 275.097 205.833 276.099 205.587 277.076C205.243 278.913 204.715 281.424 204.041 284.172C203.367 286.921 202.72 289.458 202.138 291.176C201.904 292.159 201.559 293.112 201.107 294.017C201.181 293.012 201.367 292.02 201.662 291.057C202.165 288.995 202.733 286.617 203.367 284.014C204.001 281.41 204.609 279.032 205.111 276.97C205.29 275.978 205.587 275.011 205.997 274.09V274.09Z" fill="#263238"/>
<path d="M148.237 303.65C145.18 303.178 142.163 302.476 139.212 301.549C136.196 300.844 133.237 299.916 130.358 298.774C133.414 299.254 136.43 299.956 139.384 300.875C142.4 301.578 145.36 302.505 148.237 303.65V303.65Z" fill="#263238"/>
<path d="M209.961 263.082C209.462 263.168 208.953 263.168 208.454 263.082C207.074 262.941 205.719 262.616 204.424 262.118C202.262 261.305 200.295 260.05 198.647 258.432C196.999 256.814 195.708 254.869 194.857 252.722C193.916 250.361 193.514 247.819 193.681 245.283C193.74 243.19 194.366 241.154 195.491 239.389C196.283 238.2 197.466 237.326 198.835 236.918C199.2 236.817 199.578 236.768 199.958 236.773C200.222 236.773 200.354 236.773 200.354 236.773C200.354 236.773 199.799 236.773 198.914 237.129C197.658 237.593 196.593 238.463 195.888 239.601C194.091 242.428 193.588 247.595 195.505 252.418C196.396 254.693 197.792 256.735 199.588 258.391C201.059 259.747 202.753 260.837 204.596 261.615C206.325 262.299 208.124 262.791 209.961 263.082V263.082Z" fill="#263238"/>
<path d="M240.763 264.219C240.433 260.166 240.327 256.099 240.446 252.035C240.343 247.975 240.466 243.912 240.816 239.865C241.147 243.913 241.253 247.976 241.133 252.035C241.244 256.1 241.121 260.168 240.763 264.219V264.219Z" fill="#263238"/>
<path d="M192.293 236.865C192.439 233.918 192.743 230.588 192.743 230.588C192.743 230.588 200.037 229.782 200.473 222.25C200.909 214.718 200.473 197.341 200.473 197.341L187.259 190.576L172.591 202.112L174.851 239.772L188.303 240.631C189.331 240.66 190.329 240.279 191.077 239.573C191.825 238.867 192.262 237.893 192.293 236.865V236.865Z" fill="#FFBE9D"/>
<path d="M193.602 216.291C193.602 216.291 193.602 216.436 193.483 216.608C193.385 216.732 193.257 216.831 193.112 216.896C192.967 216.96 192.809 216.988 192.65 216.978C191.805 216.978 190.985 216 190.695 214.863C190.556 214.313 190.556 213.736 190.695 213.185C190.722 212.945 190.808 212.715 190.947 212.517C191.085 212.318 191.271 212.157 191.487 212.049C191.665 211.975 191.865 211.975 192.042 212.049C192.174 212.114 192.281 212.221 192.346 212.353C192.439 212.577 192.346 212.723 192.346 212.71C192.346 212.696 192.346 212.577 192.214 212.445C192.145 212.351 192.044 212.285 191.929 212.26C191.814 212.236 191.695 212.255 191.593 212.313C191.431 212.411 191.296 212.549 191.202 212.713C191.107 212.877 191.055 213.062 191.051 213.251C190.94 213.743 190.94 214.253 191.051 214.745C191.316 215.775 192.029 216.608 192.664 216.687C192.788 216.704 192.914 216.695 193.034 216.661C193.155 216.627 193.267 216.568 193.364 216.489C193.522 216.383 193.575 216.277 193.602 216.291Z" fill="#EB996E"/>
<path d="M205.006 193.271C203.988 189.809 200.301 188.091 196.945 187.14C191.831 185.686 186.307 185.052 181.312 186.889C176.317 188.726 170.318 191.95 170.318 197.46C167.371 197.222 165.68 199.799 164.517 202.997C163.774 204.945 163.328 206.995 163.196 209.076V209.076C162.826 216.291 160.804 226.254 156.126 231.54C153.483 234.487 149.823 236.522 148.317 240.195C146.995 243.38 147.682 247.159 146.453 250.383C145.357 253.224 142.938 255.246 141.168 257.717C139.364 260.521 138.302 263.736 138.082 267.063C137.863 270.389 138.492 273.716 139.912 276.733C141.342 279.671 143.356 282.288 145.83 284.424C148.304 286.559 151.186 288.169 154.303 289.154C160.475 291.032 167.057 291.096 173.265 289.339C177.924 288.225 182.27 286.07 185.977 283.036C189.77 279.938 192.375 275.625 193.351 270.826C194.289 265.434 192.782 259.95 191.659 254.586C188.144 237.632 189.149 236.746 193.588 221.008C193.694 220.731 193.747 220.44 193.826 220.162C193.906 219.885 193.945 219.753 193.998 219.541C194.124 218.919 194.191 218.286 194.196 217.652C193.548 217.893 192.844 217.944 192.167 217.799C191.491 217.654 190.87 217.318 190.377 216.832C189.884 216.314 189.54 215.672 189.381 214.974C189.223 214.276 189.257 213.549 189.479 212.868C189.791 212.124 190.255 211.454 190.843 210.901C191.43 210.347 192.127 209.924 192.888 209.657C194.355 209.049 195.927 208.732 197.368 208.058C200.42 206.605 202.535 203.592 203.975 200.434C205.159 198.245 205.525 195.705 205.006 193.271V193.271Z" fill="#263238"/>
<path d="M194.13 216.647C194.409 217.06 194.64 217.503 194.817 217.969C195.214 218.801 195.742 219.977 196.324 221.338L196.43 221.59H196.152L194.831 221.708C193.919 221.708 193.152 221.88 192.254 221.867C192.176 221.849 192.103 221.812 192.043 221.759C191.983 221.706 191.937 221.639 191.91 221.563C191.871 221.443 191.871 221.313 191.91 221.193C191.941 221.015 191.981 220.839 192.029 220.665L192.267 219.726C192.387 219.1 192.573 218.489 192.822 217.903C192.797 218.541 192.704 219.174 192.545 219.792L192.36 220.731C192.293 221.048 192.175 221.537 192.36 221.497C193.02 221.497 193.958 221.352 194.831 221.299L196.152 221.18L195.98 221.471C195.412 220.149 194.936 218.907 194.659 218.048C194.415 217.609 194.237 217.138 194.13 216.647V216.647Z" fill="#FF725E"/>
<path d="M148.885 327.872L207.49 326.088L232.993 425.644L228.302 539.841H197.315L201.107 428.075L178.445 358.766L181.934 544.268L150.616 544.73L147.325 370.369C147.18 365.519 145.594 354.591 146.189 349.781L148.885 327.872Z" fill="#263238"/>
<path d="M186.241 360.18C185.282 360.241 184.319 360.183 183.374 360.009C181.603 359.797 179.185 359.427 176.529 358.899C173.873 358.37 171.494 357.762 169.776 357.273C168.858 357.071 167.97 356.752 167.134 356.322C167.134 356.124 171.441 357.154 176.727 358.225C182.013 359.295 186.268 359.982 186.241 360.18Z" fill="#455A64"/>
<path d="M227.985 533.578C227.985 533.763 220.968 533.921 212.313 533.921C203.658 533.921 196.628 533.763 196.628 533.578C196.628 533.393 203.645 533.234 212.313 533.234C220.982 533.234 227.985 533.379 227.985 533.578Z" fill="#455A64"/>
<path d="M181.656 539.445C181.656 539.643 174.837 539.788 166.433 539.788C158.029 539.788 151.224 539.643 151.224 539.445C151.224 539.246 158.042 539.101 166.433 539.101C174.824 539.101 181.656 539.26 181.656 539.445Z" fill="#455A64"/>
<path d="M177.612 538.969C177.427 538.969 176.608 498.441 175.776 448.452C174.943 398.462 174.454 357.908 174.626 357.908C174.798 357.908 175.644 398.422 176.463 448.438C177.282 498.454 177.811 538.969 177.612 538.969Z" fill="#455A64"/>
<path d="M223.823 533.578C223.808 533.397 223.808 533.216 223.823 533.036V531.45C223.823 530.023 223.928 527.975 224.008 525.372C224.193 520.086 224.457 512.408 224.787 503C225.501 484.077 226.505 457.992 227.602 429.198C227.602 428.921 227.602 428.657 227.602 428.419V428.511C220.665 400.761 214.388 375.575 209.829 357.353L204.543 335.8C203.935 333.276 203.473 331.307 203.142 329.933C202.984 329.286 202.878 328.783 202.786 328.4C202.734 328.228 202.703 328.051 202.693 327.872C202.762 328.038 202.815 328.211 202.852 328.387C202.957 328.757 203.09 329.259 203.275 329.893C203.631 331.215 204.147 333.223 204.807 335.734C206.129 340.835 207.992 348.182 210.318 357.234C214.916 375.443 221.259 400.563 228.289 428.353V428.445C228.289 428.683 228.289 428.96 228.289 429.225C227.113 458.019 226.043 484.09 225.263 503.013C224.853 512.435 224.51 520.059 224.272 525.372C224.14 528.014 224.034 530.023 223.968 531.45C223.968 532.124 223.889 532.653 223.876 533.036C223.878 533.218 223.86 533.399 223.823 533.578V533.578Z" fill="#455A64"/>
<path d="M213.714 426.093C211.488 426.825 209.195 427.334 206.869 427.613C204.014 428.102 201.583 428.445 200.486 428.498V428.234C200.843 428.339 201.028 428.406 201.028 428.458C201.028 428.511 200.803 428.458 200.433 428.458H199.641L200.433 428.22C201.464 427.917 203.896 427.414 206.75 426.899C209.039 426.402 211.372 426.132 213.714 426.093Z" fill="#455A64"/>
<path d="M213.172 429.886C211.111 429.98 209.045 429.887 207.001 429.608C204.937 429.566 202.88 429.34 200.856 428.934C204.986 428.597 209.143 428.918 213.172 429.886V429.886Z" fill="#455A64"/>
<path opacity="0.2" d="M148.634 329.973C149.328 330.864 150.202 331.599 151.199 332.129C152.197 332.66 153.295 332.974 154.422 333.052C156.782 333.331 159.169 333.287 161.518 332.919C176.648 331.241 192.677 329.695 207.49 326.088C188.316 327.158 168.059 326.801 148.885 327.872L148.687 329.51" fill="black"/>
<g opacity="0.2">
<path d="M168.389 356.996L179.198 398.938L178.445 358.766L168.389 356.996Z" fill="black"/>
</g>
</svg>
