<svg width="25" height="24" viewBox="0 0 25 24" fill="none" xmlns="http://www.w3.org/2000/svg">
<path d="M15.7861 3H17.2861C17.8829 3 18.4552 3.23705 18.8771 3.65901C19.2991 4.08097 19.5361 4.65326 19.5361 5.25V20.25C19.5361 20.8467 19.2991 21.419 18.8771 21.841C18.4552 22.2629 17.8829 22.5 17.2861 22.5H6.78613C6.1894 22.5 5.6171 22.2629 5.19514 21.841C4.77319 21.419 4.53613 20.8467 4.53613 20.25V5.25C4.53613 4.65326 4.77319 4.08097 5.19514 3.65901C5.6171 3.23705 6.1894 3 6.78613 3H8.28613" stroke="#363636" stroke-width="1.5" stroke-linejoin="round"/>
<path d="M14.5613 1.5H9.51098C8.83451 1.5 8.28613 2.04838 8.28613 2.72484V3.27516C8.28613 3.95162 8.83451 4.5 9.51098 4.5H14.5613C15.2378 4.5 15.7861 3.95162 15.7861 3.27516V2.72484C15.7861 2.04838 15.2378 1.5 14.5613 1.5Z" stroke="#363636" stroke-width="1.5" stroke-linejoin="round"/>
</svg>
