<svg width="25" height="24" viewBox="0 0 25 24" fill="none" xmlns="http://www.w3.org/2000/svg">
<path d="M19.1143 6H8.70801C7.23237 6 6.03613 7.19624 6.03613 8.67188V19.0781C6.03613 20.5538 7.23237 21.75 8.70801 21.75H19.1143C20.5899 21.75 21.7861 20.5538 21.7861 19.0781V8.67188C21.7861 7.19624 20.5899 6 19.1143 6Z" stroke="white" stroke-linejoin="round"/>
<path d="M18.0127 6L18.0361 4.875C18.0342 4.17942 17.757 3.51289 17.2651 3.02103C16.7732 2.52918 16.1067 2.25198 15.4111 2.25H5.28613C4.49121 2.25235 3.72951 2.56917 3.16741 3.13128C2.60531 3.69338 2.28848 4.45507 2.28613 5.25V15.375C2.28811 16.0706 2.56531 16.7371 3.05716 17.229C3.54902 17.7208 4.21555 17.998 4.91113 18H6.03613" stroke="white" stroke-linecap="round" stroke-linejoin="round"/>
</svg>
