<svg width="360" height="36" viewBox="0 0 360 36" fill="none" xmlns="http://www.w3.org/2000/svg">
<path d="M8.81586 35.273L0.478855 3.794H7.09386L11.0209 22.295L12.3859 31.556H11.6089L13.1209 22.295L17.8879 3.794H23.5579L28.4509 22.295L30.1729 31.598H29.2909L30.6349 22.295L34.3729 3.794H40.7989L32.6299 35.273H26.1619L21.4579 17.402L19.6099 6.041H21.4159L19.7149 17.402L15.0109 35.273H8.81586ZM41.6992 35V11.627H48.1042V35H41.6992ZM44.5762 8.246C43.5402 8.246 42.6652 7.924 41.9512 7.28C41.2372 6.636 40.8802 5.796 40.8802 4.76C40.8802 4.06 41.0692 3.423 41.4472 2.849C41.8392 2.261 42.3432 1.792 42.9592 1.442C43.5892 1.092 44.2612 0.916999 44.9752 0.916999C46.1232 0.916999 47.0192 1.246 47.6632 1.904C48.3212 2.548 48.6502 3.381 48.6502 4.403C48.6502 5.467 48.2442 6.377 47.4322 7.133C46.6342 7.875 45.6822 8.246 44.5762 8.246ZM50.9583 33.509L51.6723 28.994C51.8963 29.176 52.3513 29.414 53.0373 29.708C53.7233 30.002 54.5423 30.275 55.4943 30.527C56.4463 30.765 57.4263 30.884 58.4343 30.884C59.7083 30.898 60.6463 30.73 61.2483 30.38C61.8503 30.016 62.1513 29.477 62.1513 28.763C62.1513 28.273 61.9483 27.846 61.5423 27.482C61.1503 27.118 60.6113 26.782 59.9253 26.474C59.2393 26.152 58.4763 25.823 57.6363 25.487C56.1243 24.885 54.8713 24.227 53.8773 23.513C52.8973 22.799 52.1623 21.987 51.6723 21.077C51.1963 20.153 50.9653 19.075 50.9793 17.843C50.9933 16.387 51.4133 15.176 52.2393 14.21C53.0793 13.244 54.1923 12.523 55.5783 12.047C56.9783 11.557 58.5253 11.312 60.2193 11.312C61.9413 11.312 63.4043 11.473 64.6083 11.795C65.8263 12.103 66.6593 12.39 67.1073 12.656L66.4143 17.255C66.1483 17.031 65.7283 16.793 65.1543 16.541C64.5803 16.289 63.9293 16.086 63.2013 15.932C62.4873 15.764 61.7593 15.68 61.0173 15.68C59.6593 15.68 58.6653 15.848 58.0353 16.184C57.4193 16.506 57.1113 16.975 57.1113 17.591C57.0973 18.389 57.4053 18.984 58.0353 19.376C58.6793 19.754 59.5683 20.181 60.7023 20.657C62.3823 21.343 63.7893 22.029 64.9233 22.715C66.0713 23.387 66.9323 24.164 67.5063 25.046C68.0943 25.914 68.3883 26.978 68.3883 28.238C68.3883 30.562 67.5553 32.326 65.8893 33.53C64.2233 34.734 61.9763 35.336 59.1483 35.336C57.9583 35.336 56.8103 35.238 55.7043 35.042C54.6123 34.86 53.6463 34.629 52.8063 34.349C51.9803 34.069 51.3643 33.789 50.9583 33.509ZM80.5053 35.336C76.9073 35.336 74.1493 34.265 72.2313 32.123C70.3133 29.981 69.3543 27.02 69.3543 23.24C69.3543 20.972 69.7883 18.942 70.6563 17.15C71.5383 15.358 72.8123 13.944 74.4783 12.908C76.1443 11.858 78.1813 11.326 80.5893 11.312C81.8073 11.298 82.9693 11.452 84.0753 11.774C85.1813 12.096 86.1683 12.621 87.0363 13.349C87.9043 14.063 88.5973 15.015 89.1153 16.205C89.6473 17.381 89.9203 18.823 89.9343 20.531C89.9343 21.385 89.9203 22.176 89.8923 22.904C89.8643 23.632 89.8013 24.255 89.7033 24.773H72.7983L73.2183 21.308H83.9703C84.0403 20.174 83.9773 19.18 83.7813 18.326C83.5993 17.458 83.2353 16.786 82.6893 16.31C82.1433 15.82 81.3733 15.575 80.3793 15.575C79.4133 15.575 78.5663 15.841 77.8383 16.373C77.1243 16.905 76.5713 17.822 76.1793 19.124C75.8013 20.412 75.6403 22.19 75.6963 24.458C75.7523 25.984 76.0463 27.209 76.5783 28.133C77.1243 29.043 77.8593 29.701 78.7833 30.107C79.7213 30.499 80.8063 30.695 82.0383 30.695C82.7103 30.695 83.4453 30.639 84.2433 30.527C85.0413 30.415 85.7973 30.268 86.5113 30.086C87.2253 29.89 87.7713 29.694 88.1493 29.498L89.2203 32.984C88.7023 33.404 87.9883 33.796 87.0783 34.16C86.1823 34.51 85.1603 34.79 84.0123 35C82.8783 35.224 81.7093 35.336 80.5053 35.336ZM91.2405 33.509L91.9545 28.994C92.1785 29.176 92.6335 29.414 93.3195 29.708C94.0055 30.002 94.8245 30.275 95.7765 30.527C96.7285 30.765 97.7085 30.884 98.7165 30.884C99.9905 30.898 100.929 30.73 101.531 30.38C102.133 30.016 102.434 29.477 102.434 28.763C102.434 28.273 102.231 27.846 101.825 27.482C101.433 27.118 100.894 26.782 100.208 26.474C99.5215 26.152 98.7585 25.823 97.9185 25.487C96.4065 24.885 95.1535 24.227 94.1595 23.513C93.1795 22.799 92.4445 21.987 91.9545 21.077C91.4785 20.153 91.2475 19.075 91.2615 17.843C91.2755 16.387 91.6955 15.176 92.5215 14.21C93.3615 13.244 94.4745 12.523 95.8605 12.047C97.2605 11.557 98.8075 11.312 100.502 11.312C102.224 11.312 103.687 11.473 104.891 11.795C106.109 12.103 106.942 12.39 107.39 12.656L106.697 17.255C106.431 17.031 106.011 16.793 105.437 16.541C104.863 16.289 104.212 16.086 103.484 15.932C102.77 15.764 102.042 15.68 101.3 15.68C99.9415 15.68 98.9475 15.848 98.3175 16.184C97.7015 16.506 97.3935 16.975 97.3935 17.591C97.3795 18.389 97.6875 18.984 98.3175 19.376C98.9615 19.754 99.8505 20.181 100.985 20.657C102.665 21.343 104.072 22.029 105.206 22.715C106.354 23.387 107.215 24.164 107.789 25.046C108.377 25.914 108.671 26.978 108.671 28.238C108.671 30.562 107.838 32.326 106.172 33.53C104.506 34.734 102.259 35.336 99.4305 35.336C98.2405 35.336 97.0925 35.238 95.9865 35.042C94.8945 34.86 93.9285 34.629 93.0885 34.349C92.2625 34.069 91.6465 33.789 91.2405 33.509ZM109.28 23.555C109.28 21.259 109.7 19.187 110.54 17.339C111.38 15.491 112.654 14.028 114.362 12.95C116.084 11.858 118.268 11.312 120.914 11.312C122.44 11.312 123.756 11.438 124.862 11.69C125.982 11.942 126.731 12.201 127.109 12.467L126.311 17.36C125.793 17.038 125.142 16.779 124.358 16.583C123.588 16.387 122.629 16.289 121.481 16.289C120.571 16.289 119.675 16.499 118.793 16.919C117.925 17.339 117.197 18.032 116.609 18.998C116.035 19.964 115.727 21.259 115.685 22.883C115.643 24.633 115.874 26.068 116.378 27.188C116.896 28.294 117.596 29.113 118.478 29.645C119.374 30.163 120.368 30.422 121.46 30.422C122.524 30.422 123.511 30.31 124.421 30.086C125.331 29.862 126.038 29.624 126.542 29.372L127.487 33.299C126.815 33.971 125.8 34.482 124.442 34.832C123.098 35.168 121.677 35.336 120.179 35.336C117.757 35.336 115.741 34.825 114.131 33.803C112.521 32.767 111.31 31.36 110.498 29.582C109.686 27.804 109.28 25.795 109.28 23.555ZM135.385 35.336C133.901 35.336 132.599 35.035 131.479 34.433C130.359 33.831 129.484 32.991 128.854 31.913C128.238 30.835 127.93 29.582 127.93 28.154C127.93 26.726 128.315 25.501 129.085 24.479C129.869 23.457 130.926 22.659 132.256 22.085C133.166 21.707 134.16 21.413 135.238 21.203C136.33 20.993 137.415 20.846 138.493 20.762C139.585 20.678 140.6 20.636 141.538 20.636L142.609 21.959L141.538 24.017C141.034 24.017 140.467 24.052 139.837 24.122C139.207 24.192 138.598 24.297 138.01 24.437C137.436 24.563 136.953 24.71 136.561 24.878C136.015 25.13 135.525 25.466 135.091 25.886C134.671 26.306 134.461 26.95 134.461 27.818C134.461 28.952 134.776 29.792 135.406 30.338C136.036 30.87 136.848 31.136 137.842 31.136C138.36 31.136 138.871 31.066 139.375 30.926C139.893 30.786 140.348 30.625 140.74 30.443C141.132 30.247 141.398 30.065 141.538 29.897L142.651 31.22L141.874 33.026C141.244 33.586 140.376 34.111 139.27 34.601C138.178 35.091 136.883 35.336 135.385 35.336ZM147.943 35H141.874V31.514H141.538V18.914C141.538 17.724 141.223 16.947 140.593 16.583C139.963 16.205 139.06 16.016 137.884 16.016C137.002 16.016 136.078 16.093 135.112 16.247C134.16 16.401 133.257 16.604 132.403 16.856C131.549 17.108 130.835 17.381 130.261 17.675L128.875 13.643C129.351 13.363 130.093 13.034 131.101 12.656C132.109 12.278 133.264 11.949 134.566 11.669C135.868 11.375 137.177 11.228 138.493 11.228C140.649 11.228 142.42 11.48 143.806 11.984C145.206 12.488 146.242 13.342 146.914 14.546C147.6 15.75 147.943 17.416 147.943 19.544V35ZM151.715 35V11.627H157.532L157.637 14.252C158.169 13.804 158.848 13.356 159.674 12.908C160.5 12.446 161.41 12.061 162.404 11.753C163.412 11.445 164.427 11.284 165.449 11.27C167.885 11.214 169.677 11.865 170.825 13.223C171.973 14.567 172.547 16.933 172.547 20.321V35H166.121V21.224C166.121 19.404 165.883 18.13 165.407 17.402C164.931 16.674 164 16.338 162.614 16.394C162.194 16.408 161.718 16.485 161.186 16.625C160.668 16.751 160.136 16.947 159.59 17.213C159.058 17.465 158.561 17.78 158.099 18.158V35H151.715Z" fill="#363636"/>
<path d="M181.733 35V3.752L184.904 3.794C185.604 3.794 186.318 3.773 187.046 3.731C187.774 3.675 188.558 3.626 189.398 3.584C190.238 3.528 191.183 3.5 192.233 3.5C194.907 3.5 197.077 3.822 198.743 4.466C200.423 5.096 201.648 5.992 202.418 7.154C203.188 8.316 203.573 9.688 203.573 11.27C203.573 12.32 203.398 13.335 203.048 14.315C202.712 15.281 202.194 16.121 201.494 16.835C200.794 17.549 199.912 18.053 198.848 18.347C200.08 18.473 201.186 18.865 202.166 19.523C203.146 20.167 203.923 21.014 204.497 22.064C205.071 23.1 205.358 24.269 205.358 25.571C205.358 27.475 204.973 29.155 204.203 30.611C203.447 32.067 202.138 33.215 200.276 34.055C198.428 34.881 195.852 35.294 192.548 35.294C191.204 35.294 189.818 35.252 188.39 35.168C186.976 35.098 185.856 35.042 185.03 35H181.733ZM188.264 16.751C188.516 16.793 188.817 16.828 189.167 16.856C189.517 16.87 189.881 16.884 190.259 16.898C190.651 16.898 191.015 16.898 191.351 16.898C191.701 16.898 192.009 16.898 192.275 16.898C193.843 16.898 195.061 16.513 195.929 15.743C196.811 14.973 197.252 13.713 197.252 11.963C197.252 10.535 196.748 9.513 195.74 8.897C194.746 8.281 193.304 7.973 191.414 7.973C191.204 7.973 190.875 7.987 190.427 8.015C189.979 8.029 189.545 8.057 189.125 8.099C188.705 8.127 188.418 8.176 188.264 8.246V16.751ZM188.264 30.38C188.46 30.506 188.81 30.604 189.314 30.674C189.832 30.744 190.385 30.793 190.973 30.821C191.561 30.849 192.086 30.863 192.548 30.863C194.536 30.863 196.055 30.485 197.105 29.729C198.155 28.959 198.68 27.657 198.68 25.823C198.68 24.241 198.183 23.065 197.189 22.295C196.209 21.525 194.634 21.14 192.464 21.14C192.156 21.14 191.799 21.14 191.393 21.14C191.001 21.14 190.595 21.147 190.175 21.161C189.769 21.175 189.398 21.189 189.062 21.203C188.726 21.217 188.46 21.245 188.264 21.287V30.38ZM207.937 35V11.627H214.342V35H207.937ZM210.814 8.246C209.778 8.246 208.903 7.924 208.189 7.28C207.475 6.636 207.118 5.796 207.118 4.76C207.118 4.06 207.307 3.423 207.685 2.849C208.077 2.261 208.581 1.792 209.197 1.442C209.827 1.092 210.499 0.916999 211.213 0.916999C212.361 0.916999 213.257 1.246 213.901 1.904C214.559 2.548 214.888 3.381 214.888 4.403C214.888 5.467 214.482 6.377 213.67 7.133C212.872 7.875 211.92 8.246 210.814 8.246ZM217.049 35L216.167 33.299L226.478 17.927L227.696 16.1H217.7L217.721 11.606H235.508L236.243 13.58L226.079 28.637L224.798 30.464H235.634V35H217.049ZM241.594 35H234.685L245.983 3.521H253.081L264.358 35H257.344L250.435 12.908L249.469 9.296L248.482 12.908L241.594 35ZM241.09 28.385L241.951 23.702H256.273L257.134 28.385H241.09ZM279.386 35V32.081L278.924 31.766V15.911L279.092 15.764L278.924 9.842V0.874997H285.266V35H279.386ZM272.498 35.336C270.846 35.336 269.32 34.93 267.92 34.118C266.534 33.292 265.414 32.053 264.56 30.401C263.706 28.749 263.279 26.656 263.279 24.122C263.279 21.532 263.769 19.278 264.749 17.36C265.729 15.428 267.101 13.937 268.865 12.887C270.629 11.837 272.701 11.312 275.081 11.312C276.523 11.312 277.706 11.466 278.63 11.774C279.568 12.082 280.17 12.341 280.436 12.551L278.945 16.604C278.595 16.31 278.098 16.107 277.454 15.995C276.81 15.869 276.075 15.806 275.249 15.806C274.241 15.806 273.331 16.1 272.519 16.688C271.721 17.262 271.084 18.137 270.608 19.313C270.146 20.475 269.915 21.931 269.915 23.681C269.887 26.103 270.286 27.839 271.112 28.889C271.952 29.939 273.1 30.464 274.556 30.464C275.452 30.464 276.292 30.31 277.076 30.002C277.874 29.694 278.497 29.379 278.945 29.057L279.722 32.249C279.4 32.599 278.938 33.019 278.336 33.509C277.734 33.985 276.957 34.412 276.005 34.79C275.053 35.154 273.884 35.336 272.498 35.336ZM289.319 35V11.627H295.136L295.241 14.126C295.787 13.706 296.473 13.279 297.299 12.845C298.139 12.411 299.049 12.047 300.029 11.753C301.009 11.445 302.01 11.284 303.032 11.27C304.642 11.228 305.965 11.487 307.001 12.047C308.037 12.607 308.807 13.559 309.311 14.903C309.815 16.233 310.067 18.025 310.067 20.279V35H303.683V21.224C303.683 20.02 303.585 19.068 303.389 18.368C303.193 17.654 302.843 17.143 302.339 16.835C301.849 16.527 301.149 16.387 300.239 16.415C299.623 16.415 298.888 16.562 298.034 16.856C297.18 17.15 296.403 17.584 295.703 18.158V35H289.319ZM309.794 18.263L308.618 14.294C309.066 13.902 309.703 13.475 310.529 13.013C311.369 12.537 312.335 12.131 313.427 11.795C314.519 11.445 315.674 11.27 316.892 11.27C318.502 11.256 319.853 11.522 320.945 12.068C322.037 12.614 322.863 13.552 323.423 14.882C323.983 16.212 324.263 18.018 324.263 20.3V35H317.837V21.203C317.837 19.999 317.739 19.047 317.543 18.347C317.361 17.633 317.018 17.129 316.514 16.835C316.024 16.527 315.317 16.387 314.393 16.415C313.595 16.415 312.769 16.611 311.915 17.003C311.075 17.381 310.368 17.801 309.794 18.263ZM328.146 35V11.627H334.551V35H328.146ZM331.023 8.246C329.987 8.246 329.112 7.924 328.398 7.28C327.684 6.636 327.327 5.796 327.327 4.76C327.327 4.06 327.516 3.423 327.894 2.849C328.286 2.261 328.79 1.792 329.406 1.442C330.036 1.092 330.708 0.916999 331.422 0.916999C332.57 0.916999 333.466 1.246 334.11 1.904C334.768 2.548 335.097 3.381 335.097 4.403C335.097 5.467 334.691 6.377 333.879 7.133C333.081 7.875 332.129 8.246 331.023 8.246ZM338.707 35V11.627H344.524L344.629 14.252C345.161 13.804 345.84 13.356 346.666 12.908C347.492 12.446 348.402 12.061 349.396 11.753C350.404 11.445 351.419 11.284 352.441 11.27C354.877 11.214 356.669 11.865 357.817 13.223C358.965 14.567 359.539 16.933 359.539 20.321V35H353.113V21.224C353.113 19.404 352.875 18.13 352.399 17.402C351.923 16.674 350.992 16.338 349.606 16.394C349.186 16.408 348.71 16.485 348.178 16.625C347.66 16.751 347.128 16.947 346.582 17.213C346.05 17.465 345.553 17.78 345.091 18.158V35H338.707Z" fill="#E6813F"/>
</svg>
