<svg width="25" height="24" viewBox="0 0 25 24" fill="none" xmlns="http://www.w3.org/2000/svg">
<path d="M17.2861 19.4934V3.375C17.2853 3.0769 17.1665 2.79125 16.9557 2.58046C16.7449 2.36967 16.4592 2.25087 16.1611 2.25H3.41113C3.11303 2.25087 2.82739 2.36967 2.61659 2.58046C2.4058 2.79125 2.287 3.0769 2.28613 3.375V19.875C2.28762 20.3718 2.48564 20.8479 2.83695 21.1992C3.18826 21.5505 3.66431 21.7485 4.16113 21.75H19.5361" stroke="white" stroke-linejoin="round"/>
<path d="M19.5361 21.75C18.9394 21.75 18.3671 21.5129 17.9451 21.091C17.5232 20.669 17.2861 20.0967 17.2861 19.5V6H20.6611C20.9595 6 21.2456 6.11853 21.4566 6.3295C21.6676 6.54048 21.7861 6.82663 21.7861 7.125V19.5C21.7861 20.0967 21.5491 20.669 21.1271 21.091C20.7052 21.5129 20.1329 21.75 19.5361 21.75Z" stroke="white" stroke-linejoin="round"/>
<path d="M11.2861 6H14.2861M11.2861 9H14.2861M5.28613 12H14.2861M5.28613 15H14.2861M5.28613 18H14.2861" stroke="white" stroke-linecap="round" stroke-linejoin="round"/>
<path d="M8.28613 9.75H5.28613C5.08722 9.75 4.89646 9.67098 4.7558 9.53033C4.61515 9.38968 4.53613 9.19891 4.53613 9V6C4.53613 5.80109 4.61515 5.61032 4.7558 5.46967C4.89646 5.32902 5.08722 5.25 5.28613 5.25H8.28613C8.48505 5.25 8.67581 5.32902 8.81646 5.46967C8.95712 5.61032 9.03613 5.80109 9.03613 6V9C9.03613 9.19891 8.95712 9.38968 8.81646 9.53033C8.67581 9.67098 8.48505 9.75 8.28613 9.75Z" fill="white"/>
</svg>
